<?xml version="1.0" standalone="yes"?>
<!DOCTYPE svg PUBLIC "-//W3C//DTD SVG 1.1//EN"
 "http://www.w3.org/Graphics/SVG/1.1/DTD/svg11.dtd">
<svg xmlns="http://www.w3.org/2000/svg" version="1.1"
  width="100%" height="100%" viewBox="0 0 1024 768"
  style="fill: none; font-family: Helvetica;
 font: Helvetica;
">

<!-- Creator: NGspice -->

<rect x="0" y="0" width="1024" height="768" fill="black" stroke="none"/>
<text stroke="none" fill="white" font-size="16" x="358" y="752">
time
</text>
<text stroke="none" fill="white" font-size="16" x="10" y="16">
tran1: characterizer
</text>
<path stroke="white" d="M60 704l0 -638"/>
<text stroke="none" fill="white" font-size="16" x="45" y="728">
0.0
</text>
<path stroke="white" stroke-dasharray="1,2" d="M135 704l0 -638"/>
<text stroke="none" fill="white" font-size="16" x="120" y="728">
2.0
</text>
<path stroke="white" stroke-dasharray="1,2" d="M210 704l0 -638"/>
<text stroke="none" fill="white" font-size="16" x="195" y="728">
4.0
</text>
<path stroke="white" stroke-dasharray="1,2" d="M285 704l0 -638"/>
<text stroke="none" fill="white" font-size="16" x="270" y="728">
6.0
</text>
<path stroke="white" stroke-dasharray="1,2" d="M360 704l0 -638"/>
<text stroke="none" fill="white" font-size="16" x="345" y="728">
8.0
</text>
<path stroke="white" stroke-dasharray="1,2" d="M435 704l0 -638"/>
<text stroke="none" fill="white" font-size="16" x="415" y="728">
10.0
</text>
<path stroke="white" stroke-dasharray="1,2" d="M510 704l0 -638"/>
<text stroke="none" fill="white" font-size="16" x="490" y="728">
12.0
</text>
<path stroke="white" stroke-dasharray="1,2" d="M585 704l0 -638"/>
<text stroke="none" fill="white" font-size="16" x="565" y="728">
14.0
</text>
<path stroke="white" stroke-dasharray="1,2" d="M660 704l0 -638"/>
<text stroke="none" fill="white" font-size="16" x="640" y="728">
16.0
</text>
<path stroke="white" stroke-dasharray="1,2" d="M735 704l0 -638"/>
<text stroke="none" fill="white" font-size="16" x="715" y="728">
18.0
</text>
<path stroke="white" stroke-dasharray="1,2" d="M810 704l0 -638"/>
<text stroke="none" fill="white" font-size="16" x="790" y="728">
20.0
</text>
<path stroke="white" stroke-dasharray="1,2" d="M885 704l0 -638"/>
<text stroke="none" fill="white" font-size="16" x="865" y="728">
22.0
</text>
<path stroke="white" stroke-dasharray="1,2" d="M960 704l0 -638"/>
<text stroke="none" fill="white" font-size="16" x="940" y="728">
24.0
</text>
<text stroke="none" fill="white" font-size="16" x="614" y="752">
ns
</text>
<path stroke="white" stroke-dasharray="1,2" d="M60 704l900 0"/>
<text stroke="none" fill="white" font-size="16" x="8" y="712">
-10.0
</text>
<path stroke="white" stroke-dasharray="1,2" d="M60 646l900 0"/>
<text stroke="none" fill="white" font-size="16" x="18" y="654">
-8.0
</text>
<path stroke="white" stroke-dasharray="1,2" d="M60 588l900 0"/>
<text stroke="none" fill="white" font-size="16" x="18" y="596">
-6.0
</text>
<path stroke="white" stroke-dasharray="1,2" d="M60 530l900 0"/>
<text stroke="none" fill="white" font-size="16" x="18" y="538">
-4.0
</text>
<path stroke="white" stroke-dasharray="1,2" d="M60 472l900 0"/>
<text stroke="none" fill="white" font-size="16" x="18" y="480">
-2.0
</text>
<path stroke="white" d="M60 414l900 0"/>
<text stroke="none" fill="white" font-size="16" x="28" y="422">
0.0
</text>
<path stroke="white" stroke-dasharray="1,2" d="M60 356l900 0"/>
<text stroke="none" fill="white" font-size="16" x="28" y="364">
2.0
</text>
<path stroke="white" stroke-dasharray="1,2" d="M60 298l900 0"/>
<text stroke="none" fill="white" font-size="16" x="28" y="306">
4.0
</text>
<path stroke="white" stroke-dasharray="1,2" d="M60 240l900 0"/>
<text stroke="none" fill="white" font-size="16" x="28" y="248">
6.0
</text>
<path stroke="white" stroke-dasharray="1,2" d="M60 182l900 0"/>
<text stroke="none" fill="white" font-size="16" x="28" y="190">
8.0
</text>
<path stroke="white" stroke-dasharray="1,2" d="M60 124l900 0"/>
<text stroke="none" fill="white" font-size="16" x="18" y="132">
10.0
</text>
<path stroke="white" stroke-dasharray="1,2" d="M60 66l900 0"/>
<text stroke="none" fill="white" font-size="16" x="18" y="74">
12.0
</text>
<text stroke="none" fill="white" font-size="16" x="10" y="32">
     
</text>
<path stroke="red" d="M450 23l45 0"/>
<text stroke="none" fill="white" font-size="16" x="505" y="32">
v(clk)+10
</text>
<path stroke="red" d="M60 124l0 -1 1 -1 0 -2 1 -1 0 -3 1 -1 0 -2 1 -1 0 -2 1 -1 0 -3 1 -1 0 -2 1 -1 0 -2 1 -1 0 -1 1 -2 0 -3 1 -1 0 -2 1 -1 0 -1 1 -2 0 -1 1 -2 0 -3 1 -1 0 -1 1 -2 0 -1 1 -2 0 -1 94 0M170 74l0 -2M170 74l1 1M171 77l0 -2M171 77l1 1"/>
<path stroke="red" d="M172 80l0 -2M172 80l1 1M173 83l0 -2M173 83l1 1M174 87l0 -3M174 87l1 1M175 90l0 -2M175 90l1 1M176 92l0 -1M176 92l1 2M177 97l0 -3M177 97l1 1M178 100l0 -2M178 100l1 1M179 102l0 -1M179 102l1 2M180 105l0 -1M180 105l1 2M181 110l0 -3"/>
<path stroke="red" d="M181 110l1 1M182 112l0 -1M182 112l1 2M183 115l0 -1M183 115l1 2M184 118l0 -1M184 118l1 2M185 122l0 -2M185 122l1 2 94 0 0 -2 1 -2 0 -1 1 -1 0 -3 1 -2 0 -1 1 -2 0 -1 1 -1 0 -2 1 -1 0 -3 1 -2 0 -1 1 -1 0 -2 1 -1 0 -2 1 -1 0 -3"/>
<path stroke="red" d="M290 89l1 -1 0 -2 1 -1 0 -2 1 -1 0 -3 1 -1 0 -2 1 -1 0 -2 1 -1 94 0M390 74l0 -2M390 74l1 1M391 78l0 -3M391 78l1 2M392 81l0 -1M392 81l1 2M393 84l0 -1M393 84l1 1M394 88l0 -3M394 88l1 2M395 91l0 -1M395 91l1 1M396 94l0 -2M396 94l1 1"/>
<path stroke="red" d="M397 97l0 -2M397 97l1 1M398 101l0 -3M398 101l1 1M399 104l0 -2M399 104l1 1M400 107l0 -2M400 107l1 1M401 110l0 -2M401 110l1 1M402 114l0 -3M402 114l1 1M403 117l0 -2M403 117l1 1M404 120l0 -2M404 120l1 1M405 124l0 -3M405 124l94 0"/>
<path stroke="red" d="M499 124l0 -1 1 0 0 -3 1 -1 0 -2 1 -1 0 -1 1 -2 0 -3 1 -1 0 -2 1 -1 0 -1 1 -2 0 -1 1 -2 0 -3 1 -1 0 -1 1 -2 0 -1 1 -2 0 -2 1 -2 0 -1 1 -2 0 -1 1 -2 0 -1 1 -1 0 -3 1 -2 0 -1 94 0M609 73l0 -1M609 73l1 1M610 75l0 -1M610 75l1 2"/>
<path stroke="red" d="M611 80l0 -3M611 80l1 1M612 83l0 -2M612 83l1 1M613 85l0 -1M613 85l1 2M614 88l0 -1M614 88l1 2M615 92l0 -2M615 92l1 2M616 95l0 -1M616 95l1 2M617 98l0 -1M617 98l1 2M618 101l0 -1M618 101l1 1M619 105l0 -3M619 105l1 2M620 108l0 -1"/>
<path stroke="red" d="M620 108l1 2M621 111l0 -1M621 111l1 1M622 115l0 -3M622 115l1 2M623 118l0 -1M623 118l1 2M624 121l0 -1M624 121l1 1M625 124l0 -2M625 124l94 0 0 -1 1 -1 0 -3 1 -1 0 -2 1 -1 0 -2 1 -1 0 -3 1 -1 0 -2 1 -1 0 -2 1 -1 0 -2 1 -1 0 -3"/>
<path stroke="red" d="M727 96l1 -1 0 -2 1 -1 0 -2 1 -1 0 -1 1 -2 0 -3 1 -1 0 -2 1 -1 0 -1 1 -2 0 -3 1 -1 94 0M829 74l0 -2M829 74l1 1M830 77l0 -2M830 77l1 1M831 80l0 -2M831 80l1 1M832 84l0 -3M832 84l1 1M833 87l0 -2M833 87l1 1M834 90l0 -2M834 90l1 1"/>
<path stroke="red" d="M835 94l0 -3M835 94l1 1M836 97l0 -2M836 97l1 1M837 100l0 -2M837 100l1 1M838 102l0 -1M838 102l1 2M839 107l0 -3M839 107l1 1M840 110l0 -2M840 110l1 1M841 112l0 -1M841 112l1 2M842 115l0 -1M842 115l1 2M843 120l0 -3M843 120l1 1"/>
<path stroke="red" d="M844 122l0 -1M844 122l1 2 93 0"/>
<path stroke="blue" d="M60 23l45 0"/>
<text stroke="none" fill="white" font-size="16" x="115" y="32">
v(x0.wlen)+8
</text>
<path stroke="blue" d="M60 182l22 0 0 -2 1 -1 0 -2 1 -1 0 -3 1 -2 0 -3 1 -2 0 -7 1 -3 0 -3 1 -3 0 -4 1 -4 0 -6 1 -2 0 -1 1 -1 0 -1 1 -1 101 0 0 -1 4 0M197 130l0 -1M197 130l1 0M198 131l0 -1M198 131l1 2M199 135l0 -2M199 135l1 2M200 139l0 -2M200 139l1 3"/>
<path stroke="blue" d="M201 148l0 -6M201 148l1 3M202 154l0 -3M202 154l1 3M203 160l0 -3M203 160l1 4M204 167l0 -3M204 167l1 3M205 175l0 -5M205 175l1 3M206 179l0 -1M206 179l1 1M207 181l0 -1M207 181l1 0M208 182l0 -1M208 182l93 0 1 -1 0 -2 1 -2 0 -1"/>
<path stroke="blue" d="M303 176l1 -3 0 -2 1 -3 0 -3 1 -3 0 -6 1 -3 0 -4 1 -4 0 -3 1 -3 0 -3 1 -1 0 -3 1 -1 1 0 0 -1 100 0 1 -1 3 0 2 2M418 133l0 -2M418 133l1 2M419 137l0 -2M419 137l1 2M420 142l0 -3M420 142l1 3M421 148l0 -3M421 148l1 3M422 157l0 -6"/>
<path stroke="blue" d="M422 157l1 3M423 164l0 -4M423 164l1 3M424 170l0 -3M424 170l1 3M425 178l0 -5M425 178l1 1M426 180l0 -1M426 180l2 2 93 0 0 -1 1 -1 0 -2 1 -2 0 -2 1 -2 0 -3 1 -3 0 -3 1 -3 0 -7 1 -3 0 -4 1 -3 0 -3 1 -3 0 -4 3 -3 100 0 0 -1"/>
<path stroke="blue" d="M632 129l4 0M636 130l0 -1M636 130l1 0M637 131l0 -1M637 131l1 0M638 133l0 -2M638 133l1 2M639 139l0 -4M639 139l1 3M640 145l0 -3M640 145l1 3M641 151l0 -3M641 151l1 3M642 160l0 -6M642 160l1 4M643 167l0 -3M643 167l1 3M644 173l0 -3"/>
<path stroke="blue" d="M644 173l1 2M645 178l0 -3M645 178l1 1M646 181l0 -2M646 181l1 0M647 182l0 -1M647 182l93 0 1 -1 0 -1 1 -1 0 -2 1 -1 0 -5 1 -3 0 -3 1 -3 0 -3 1 -3 0 -3 1 -4 0 -7 1 -3 0 -3 1 -1 0 -2 1 -1 0 -1 1 0 0 -1 101 0 0 -1 4 0M856 130l0 -1"/>
<path stroke="blue" d="M856 130l1 1 1 2M858 135l0 -2M858 135l1 2M859 142l0 -5M859 142l1 3M860 148l0 -3M860 148l1 3M861 154l0 -3M861 154l1 3M862 160l0 -3M862 160l1 4M863 170l0 -6M863 170l1 3M864 175l0 -2M864 175l1 3M865 179l0 -1M865 179l1 1M866 181l0 -1"/>
<path stroke="blue" d="M866 181l1 1 71 0"/>
<path stroke="#FFA500" d="M450 39l45 0"/>
<text stroke="none" fill="white" font-size="16" x="505" y="48">
v(x0.dc0)+8
</text>
<path stroke="#FFA500" d="M60 130l22 0 2 -2 0 -1 1 3M85 147l0 -17M85 147l1 25M86 183l0 -11M86 182l238 0 0 -2 1 -3 0 -6 1 -8 0 -9 1 -9 0 -8 1 -4 0 -2 1 -1 193 0 0 -1 1 -1 0 -1 1 6M524 155l0 -22M524 155l1 22M525 183l0 -6M525 183l1 -1 237 0 1 -2"/>
<path stroke="#FFA500" d="M764 180l0 -3 1 -6 0 -17 1 -9 0 -8 1 -4 0 -2 1 0 0 -1 170 0"/>
<path stroke="green" d="M60 39l45 0"/>
<text stroke="none" fill="white" font-size="16" x="115" y="48">
v(x0.wl0)+8
</text>
<path stroke="green" d="M60 182l74 0M134 183l0 -1M134 183l4 0 0 -1 194 0 0 -1 1 -1 0 -1 1 -1 0 -2 1 -2 0 -5 1 -2 0 -2 1 -3 0 -2 1 -2 0 -3 1 -2 0 -4 1 -2 0 -2 1 -1 0 -2 1 -1 0 -3 1 -1 0 -1 2 -2 0 -1 1 0 0 -1 1 0 0 -1 2 0 0 -1 69 0 1 -1 5 0 1 1"/>
<path stroke="green" d="M425 130l2 0 1 -1 1 0 1 1 1 0 1 1M432 132l0 -1M432 132l1 0M433 135l0 -3M433 135l1 1M434 138l0 -2M434 138l1 2M435 142l0 -2M435 142l1 2M436 149l0 -5M436 149l1 2M437 154l0 -3M437 154l1 3M438 160l0 -3M438 160l1 3M439 166l0 -3"/>
<path stroke="green" d="M439 166l1 3M440 174l0 -5M440 174l1 3M441 178l0 -1M441 178l1 2 1 1M443 182l0 -1M443 182l328 0 0 -1 1 -1 0 -2 1 -1 0 -2 1 -2 0 -3 1 -2 0 -2 1 -3 0 -5 1 -2 0 -2 1 -2 0 -3 1 -2 0 -2 1 -1 0 -3 1 -1 0 -1 1 -1 0 -1 1 0 0 -2"/>
<path stroke="green" d="M783 135l1 0 0 -1 1 -1 1 0 0 -1 1 0 0 -1 2 0 1 -1 68 0 0 -1 12 0M870 130l0 -1M870 130l2 2M872 133l0 -1M872 133l1 2M873 136l0 -1M873 136l1 2M874 142l0 -4M874 142l1 2M875 147l0 -3M875 147l1 2M876 152l0 -3M876 152l1 3M877 160l0 -5"/>
<path stroke="green" d="M877 160l1 3M878 166l0 -3M878 166l1 3M879 172l0 -3M879 172l1 2M880 176l0 -2M880 176l1 2M881 180l0 -2M881 180l1 1 1 0 1 1 54 0"/>
<path stroke="#FFC0C5" d="M450 55l45 0"/>
<text stroke="none" fill="white" font-size="16" x="505" y="64">
v(x0.dbl)+6
</text>
<path stroke="#FFC0C5" d="M60 188l18 0 0 -1 117 0 1 1 1 0M197 189l0 -1M197 189l1 0M198 190l0 -1M198 190l1 1 1 0M200 192l0 -1M200 192l1 0M201 193l0 -1M201 193l1 1 1 0M203 195l0 -1M203 195l2 0M205 196l0 -1M205 196l2 0 1 1 7 0M215 198l0 -1M215 198l7 0"/>
<path stroke="#FFC0C5" d="M222 198l0 -1 5 0 0 -1 3 0 0 -1 2 0 0 -1 2 0 0 -1 2 0 0 -1 2 0 0 -1 3 0 0 -1 4 0 0 -1 7 0 1 -1 45 0 0 -1 117 0M415 188l0 -1M415 188l1 0 2 2M418 191l0 -1M418 191l1 0M419 192l0 -1M419 192l1 0M420 193l0 -1M420 193l1 0 2 2"/>
<path stroke="#FFC0C5" d="M423 195l1 0 1 1 2 0M427 197l0 -1M427 197l8 0M435 198l0 -1M435 198l6 0 0 -1 5 0 1 -1 2 0 0 -1 2 0 0 -1 2 0 1 -1 1 0 1 -1 2 0 0 -1 3 0 0 -1 4 0 0 -1 7 0 0 -1 45 0 1 -1 117 0M635 188l0 -1M635 188l1 0M636 189l0 -1M636 189l1 0"/>
<path stroke="#FFC0C5" d="M637 190l0 -1M637 190l1 0M638 191l0 -1M638 191l1 0M639 192l0 -1M639 192l1 1 1 0M641 194l0 -1M641 194l1 0M642 195l0 -1M642 195l2 0M644 196l0 -1M644 196l2 0 1 1 7 0 1 1 4 0 0 -1 7 0 0 -1 2 0 1 -1 2 0 0 -1 2 0 0 -1 2 0"/>
<path stroke="#FFC0C5" d="M675 193l0 -1 2 0 1 -1 2 0 1 -1 3 0 1 -1 7 0 0 -1 44 0 1 -1 117 0 1 1 1 0M856 189l0 -1M856 189l5 5 1 0M862 195l0 -1M862 195l1 0 1 1 2 0M866 197l0 -1M866 197l8 0M874 198l0 -1M874 198l4 0 1 -1 6 0 1 -1 2 0 0 -1 2 0 1 -1"/>
<path stroke="#FFC0C5" d="M891 194l1 0 1 -1 2 0 0 -1 2 0 0 -1 3 0 0 -1 4 0 0 -1 7 0 1 -1 26 0"/>
<path stroke="#A52A2A" d="M60 55l45 0"/>
<text stroke="none" fill="white" font-size="16" x="115" y="64">
v(x0.dbl_)+6
</text>
<path stroke="#A52A2A" d="M60 188l18 0 0 -1 54 0 1 1M133 189l0 -1M133 189l1 1M134 191l0 -1M134 191l1 1M135 193l0 -1M135 193l1 1M136 197l0 -3M136 197l1 2M137 200l0 -1M137 200l1 2M138 203l0 -1M138 203l1 2M139 207l0 -2M139 207l1 2M140 212l0 -3M140 212l1 2"/>
<path stroke="#A52A2A" d="M141 216l0 -2M141 216l1 2M142 220l0 -2M142 220l1 1M143 225l0 -4M143 225l1 1M144 227l0 -1M144 227l1 2M145 230l0 -1M145 230l1 1M146 232l0 -1M146 232l1 1M147 235l0 -2M147 235l1 0M148 236l0 -1M148 236l1 0M149 237l0 -1M149 237l1 0"/>
<path stroke="#A52A2A" d="M150 237l2 2 3 0M155 240l0 -1M155 240l41 0 0 -1 1 0 1 -1 0 -1 1 0 0 -1 2 -2 0 -1 1 0 1 -1 2 0 0 -1 8 0 1 -1 2 0 0 -1 2 -2 0 -1 1 -1 0 -2 1 -1 0 -2 1 -1 0 -1 1 -1 0 -1 1 -1 0 -2 1 -1 0 -1 1 -1 0 -1 1 -1 0 -1 1 -1 0 -2"/>
<path stroke="#A52A2A" d="M227 204l1 -1 0 -1 1 0 0 -1 1 -1 0 -1 5 -5 1 0 0 -1 1 0 0 -1 2 0 0 -1 2 0 1 -1 3 0 1 -1 6 0 1 -1 45 0 0 -1 32 0M330 188l0 -1M330 188l1 0M331 190l0 -2M331 190l1 1M332 192l0 -1M332 192l1 1M333 195l0 -2M333 195l1 1M334 198l0 -2"/>
<path stroke="#A52A2A" d="M334 198l1 1M335 203l0 -4M335 203l1 2M336 206l0 -1M336 206l1 2M337 210l0 -2M337 210l1 2M338 214l0 -2M338 214l1 2M339 220l0 -4M339 220l1 2M340 224l0 -2M340 224l1 2M341 228l0 -2M341 228l1 2M342 234l0 -4M342 234l1 1M343 236l0 -1"/>
<path stroke="#A52A2A" d="M343 236l3 3 1 0M347 240l0 -1M347 240l68 0 1 -1 1 0 0 -1 1 0 0 -1 1 -1 0 -1 1 0 0 -1 1 0 1 -1 0 -1 2 0 1 -1 7 0 0 -1 3 0 1 -1 0 -1 2 -2 0 -2 1 -1 0 -1 1 -1 0 -2 1 -1 0 -1 1 -2 0 -1 1 -1 0 -2 1 -1 0 -1 1 -1 0 -1 1 -1"/>
<path stroke="#A52A2A" d="M446 206l0 -1 1 0 0 -2 1 -1 0 -1 1 0 0 -1 2 -2 0 -1 1 0 0 -1 1 0 0 -1 1 0 0 -1 1 0 0 -1 2 0 0 -1 1 0 1 -1 2 0 1 -1 3 0 0 -1 7 0 0 -1 46 0 0 -1 53 0 2 2M573 191l0 -2M573 191l1 1M574 193l0 -1M574 193l1 2M575 196l0 -1M575 196l1 2"/>
<path stroke="#A52A2A" d="M576 201l0 -3M576 201l1 2M577 205l0 -2M577 205l1 2M578 209l0 -2M578 209l1 2M579 212l0 -1M579 212l1 2M580 218l0 -4M580 218l1 2M581 221l0 -1M581 221l1 2M582 225l0 -2M582 225l1 1M583 227l0 -1M583 227l1 2M584 231l0 -2M584 231l1 1"/>
<path stroke="#A52A2A" d="M585 233l0 -1M585 233l2 2M587 236l0 -1M587 236l1 1 1 0M589 238l0 -1M589 238l2 0M591 239l0 -1M591 239l3 0 1 1 40 0 0 -1 1 0 3 -3 0 -1 1 -1 1 0 0 -1 1 0 0 -1 2 0 0 -1 8 0 1 -1 2 0 0 -1 1 0 0 -1 1 -1 0 -2 1 -1 0 -1 1 -1"/>
<path stroke="#A52A2A" d="M659 222l0 -1 1 -1 0 -2 1 -2 0 -1 1 -1 0 -1 1 -1 0 -1 1 -1 0 -2 1 -1 0 -1 1 -1 0 -1 1 0 0 -1 1 -1 0 -1 1 -1 0 -1 1 0 0 -1 1 -1 0 -1 1 0 2 -2 1 0 0 -1 1 0 1 -1 1 0 0 -1 3 0 0 -1 4 0 0 -1 7 0 0 -1 44 0 1 -1 32 0M769 188l0 -1"/>
<path stroke="#A52A2A" d="M769 188l1 0M770 189l0 -1M770 189l1 1M771 191l0 -1M771 191l1 1M772 195l0 -3M772 195l1 1M773 198l0 -2M773 198l1 2M774 201l0 -1M774 201l1 2M775 205l0 -2M775 205l1 2M776 211l0 -4M776 211l1 2M777 215l0 -2M777 215l1 2M778 219l0 -2"/>
<path stroke="#A52A2A" d="M778 219l1 2M779 224l0 -3M779 224l1 2M780 230l0 -4M780 230l1 2M781 233l0 -1M781 233l1 2M782 236l0 -1M782 236l1 1M783 238l0 -1M783 238l1 0M784 239l0 -1M784 239l2 0 1 1 68 0 0 -1 1 0 0 -1 1 0 0 -1 1 0 0 -1 1 -1 0 -1 1 0"/>
<path stroke="#A52A2A" d="M860 234l2 -2 1 0 1 -1 7 0 1 -1 2 0 2 -2 0 -1 1 -1 0 -2 1 -1 0 -1 1 -1 0 -1 1 -1 0 -1 1 -2 0 -2 1 -1 0 -1 1 -1 0 -1 1 -1 0 -2 1 -1 0 -1 2 -2 0 -1 1 -1 0 -1 2 -2 0 -1 1 0 0 -1 1 0 0 -1 1 0 0 -1 1 0 1 -1 1 0 0 -1 2 0 0 -1"/>
<path stroke="#A52A2A" d="M898 191l2 0 1 -1 3 0 1 -1 6 0 1 -1 26 0"/>
<path stroke="#F0E68C" d="M450 71l45 0"/>
<text stroke="none" fill="white" font-size="16" x="505" y="80">
v(x0.saen)+6
</text>
<path stroke="#F0E68C" d="M60 240l89 0 2 -2 0 -2 1 -1 0 -2 1 -1 0 -2 1 -2 0 -2 1 -2 0 -3 1 -2 0 -1 1 -1 0 -1 1 -1 0 -1 1 0 0 -3 1 -1 0 -1 1 -1 0 -1 1 -2 0 -2 1 -1 0 -1 1 0 0 -1 1 -1 0 -1 1 -1 0 -2 1 -1 0 -1 1 -1 0 -1 1 0 1 2M170 195l0 -2M170 195l1 -1"/>
<path stroke="#F0E68C" d="M171 194l0 -1 1 -1 0 -1 1 0 1 -1 1 0 0 -1 4 0 0 -1 33 0 2 2M214 191l0 -1M214 191l1 1M215 193l0 -1M215 193l1 1M216 196l0 -2M216 196l1 1M217 199l0 -2M217 199l1 1M218 201l0 -1M218 201l1 2M219 206l0 -3M219 206l1 2M220 209l0 -1"/>
<path stroke="#F0E68C" d="M220 209l1 2M221 212l0 -1M221 212l1 2M222 216l0 -2M222 216l1 2M223 221l0 -3M223 221l1 2M224 225l0 -2M224 225l1 2M225 229l0 -2M225 229l1 2M226 233l0 -2M226 233l1 2M227 237l0 -2M227 237l2 2 1 0M230 240l0 -1M230 240l99 0"/>
<path stroke="#F0E68C" d="M329 240l1 -1 3 0M333 240l0 -1M333 240l13 0 2 -2 0 -1 1 -1 0 -3 1 -2 0 -1 1 -2 0 -2 1 -2 0 -1 1 -2 0 -3 1 -1 0 -1 1 -1 0 -1 1 -2 0 -1 1 -1 0 -1 1 -1 0 -1 1 -2 1 -1 0 -2 1 -1 0 -1 1 0 0 -1 1 -1 0 -1 1 -1 0 -1 1 -1 0 -1"/>
<path stroke="#F0E68C" d="M365 193l1 0 0 -1 1 0 0 -1 1 0 0 -1 2 0 1 -1 4 0 0 -1 57 0 1 1M433 190l0 -1M433 190l1 1M434 192l0 -1M434 192l1 1M435 194l0 -1M435 194l1 1M436 197l0 -2M436 197l1 1M437 200l0 -2M437 200l1 1M438 203l0 -2M438 203l1 1M439 206l0 -2"/>
<path stroke="#F0E68C" d="M439 206l1 1M440 210l0 -3M440 210l1 2M441 213l0 -1M441 213l1 2M442 217l0 -2M442 217l1 1M443 222l0 -4M443 222l1 2M444 226l0 -2M444 226l1 2M445 230l0 -2M445 230l1 2M446 234l0 -2M446 234l1 1M447 237l0 -2M447 237l2 2 1 0"/>
<path stroke="#F0E68C" d="M450 239l1 1 137 0 0 -1 1 0 0 -1 1 -1 0 -1 1 -1 0 -3 1 -2 0 -2 1 -2 0 -2 1 -2 0 -2 1 -1 0 -1 1 -1 0 -3 1 -1 0 -1 1 -1 0 -1 1 -1 0 -1 1 -1 0 -3 1 -2 0 -1 1 -1 1 2 1 -1 0 -2 1 -1 0 -1 1 -1 0 -1 1 0 0 -1 1 -1 0 -1 1 0 0 -1"/>
<path stroke="#F0E68C" d="M609 191l2 0 0 -1 2 0 0 -1 4 0 1 -1 34 0M652 189l0 -1M652 189l1 0M653 191l0 -2M653 191l1 1M654 193l0 -1M654 193l1 1M655 195l0 -1M655 195l1 1M656 197l0 -1M656 197l1 2M657 201l0 -2M657 201l1 2M658 204l0 -1M658 204l1 2"/>
<path stroke="#F0E68C" d="M659 208l0 -2M659 208l1 1M660 212l0 -3M660 212l1 2M661 216l0 -2M661 216l1 2M662 219l0 -1M662 219l1 2M663 223l0 -2M663 223l1 2M664 229l0 -4M664 229l1 2M665 233l0 -2M665 233l1 1M666 235l0 -1M666 235l1 1M667 237l0 -1M667 237l2 2"/>
<path stroke="#F0E68C" d="M669 239l2 0M671 240l0 -1M671 240l13 0 0 -1 1 0 0 -1 2 2 98 0 2 -2 0 -2 1 -2 0 -1 1 -2 0 -1 1 -2 0 -4 1 -1 0 -2 1 -1 0 -1 1 -2 0 -1 1 -1 0 -2 1 -1 0 -1 1 -1 0 -1 2 -2 0 -2 1 -1 0 -1 1 -1 0 -1 1 -1 0 -2 1 -1 0 -1 2 -2"/>
<path stroke="#F0E68C" d="M804 194l0 -1 1 0 0 -1 1 0 0 -1 1 0 1 -1 1 0 1 -1 4 0 0 -1 57 0 2 2M873 191l0 -1M873 191l1 1M874 194l0 -2M874 194l1 1M875 196l0 -1M875 196l1 1M876 198l0 -1M876 198l1 2M877 203l0 -3M877 203l1 1M878 206l0 -2M878 206l1 1"/>
<path stroke="#F0E68C" d="M879 209l0 -2M879 209l1 1M880 212l0 -2M880 212l1 1M881 217l0 -4M881 217l1 1M882 220l0 -2M882 220l1 2M883 224l0 -2M883 224l1 2M884 230l0 -4M884 230l1 2M885 233l0 -1M885 233l1 2M886 236l0 -1M886 236l1 1M887 238l0 -1M887 238l1 0"/>
<path stroke="#F0E68C" d="M888 239l0 -1M888 239l1 0 1 1 48 0"/>
<path stroke="#DDA0DD" d="M60 71l45 0"/>
<text stroke="none" fill="white" font-size="16" x="115" y="80">
v(x0.bl0)+4
</text>
<path stroke="#DDA0DD" d="M60 246l22 0 0 -1 40 0M122 246l0 -1M122 246l11 0M133 247l0 -1M133 247l1 1M134 249l0 -1M134 249l1 1M135 252l0 -2M135 252l1 1M136 256l0 -3M136 256l1 1M137 259l0 -2M137 259l1 1M138 262l0 -2M138 262l1 1M139 264l0 -1M139 264l1 1"/>
<path stroke="#DDA0DD" d="M140 265l20 0M160 266l0 -1M160 266l38 0 5 -5 1 0 0 -1 1 0 1 -1 2 0 0 -1 3 0 0 -1 7 0 1 -1 26 0 1 -1 34 0 1 -1 2 0 1 -1 2 0 0 -1 1 0 1 -1 2 0 0 -1 2 0 1 -1 2 0 0 -1 4 0 0 -1 3 0 0 -1 26 0 1 1 1 0 1 1M331 250l0 -2M331 250l1 3"/>
<path stroke="#DDA0DD" d="M332 255l0 -2M332 255l1 3M333 261l0 -3M333 261l1 3M334 267l0 -3M334 267l1 2M335 275l0 -6M335 275l1 3M336 281l0 -3M336 281l1 2M337 286l0 -3M337 286l1 2M338 290l0 -2M338 290l1 1M339 294l0 -3M339 294l1 1M340 296l0 -1M340 296l1 0"/>
<path stroke="#DDA0DD" d="M341 297l0 -1M341 297l1 0 1 1 75 0 0 -1 2 -2 0 -1 1 0 1 -1 13 0 0 -1 2 0 0 -1 1 0 3 -3 1 0 0 -1 1 0 1 -1 1 0 1 -1 2 0 1 -1 4 0 0 -1 9 0 0 -1 31 0 0 -1 1 -1 0 -2 1 -1 0 -2 1 -1 0 -1 1 -1 0 -1 1 -1 0 -2 1 -1 0 -2 1 0 0 -2"/>
<path stroke="#DDA0DD" d="M500 263l1 -1 0 -1 1 0 0 -1 1 -1 0 -1 1 -1 0 -1 1 0 0 -1 1 0 0 -1 1 0 0 -1 1 0 0 -1 1 0 0 -1 1 0 1 -1 1 0 1 -1 2 0 0 -1 3 0 1 -1 3 0 0 -1 25 0 1 1 28 0 1 1 5 0 1 -1 15 0 1 1 39 0M638 249l0 -1M638 249l1 0M639 251l0 -2"/>
<path stroke="#DDA0DD" d="M639 251l1 0 1 1 1 0M642 253l0 -1M642 253l1 0 1 1 2 0 1 1 7 0 1 1 4 0 0 -1 7 0 0 -1 2 0 0 -1 2 0 1 -1 1 0 1 -1 2 0 0 -1 2 0 1 -1 2 0 1 -1 3 0 1 -1 7 0 0 -1 18 0 1 -1 3 0M714 246l0 -1M714 246l26 0 1 -1 28 0M769 246l0 -1"/>
<path stroke="#DDA0DD" d="M769 246l1 0M770 247l0 -1M770 247l1 1M771 249l0 -1M771 249l1 1M772 253l0 -3M772 253l1 2M773 256l0 -1M773 256l1 2M774 260l0 -2M774 260l1 2M775 263l0 -1M775 263l1 2M776 269l0 -4M776 269l1 2M777 273l0 -2M777 273l1 2M778 278l0 -3"/>
<path stroke="#DDA0DD" d="M778 278l1 2M779 282l0 -2M779 282l1 3M780 289l0 -4M780 289l1 1M781 292l0 -2M781 292l1 1M782 294l0 -1M782 294l1 1M783 296l0 -1M783 296l1 0M784 297l0 -1M784 297l2 0M786 298l0 -1M786 298l71 0 1 -1 0 -1 1 -1 0 -2 1 0 0 -1"/>
<path stroke="#DDA0DD" d="M860 292l1 0 0 -1 1 0 0 -1 1 0 1 -1 7 0 0 -1 3 0 0 -1 1 0 1 -1 0 -1 1 -1 0 -2 1 -1 0 -1 1 -1 0 -2 1 -1 0 -1 1 -1 0 -2 1 -1 0 -1 1 -1 0 -2 1 0 0 -2 1 -1 0 -1 1 -1 0 -1 2 -2 0 -1 1 -1 0 -1 1 0 0 -1 1 0 0 -1 1 0 0 -1 1 0"/>
<path stroke="#DDA0DD" d="M893 253l0 -1 1 0 2 -2 2 0 0 -1 2 0 1 -1 3 0 0 -1 7 0 1 -1 18 0 0 -1 3 0 1 1 4 0"/>
<path stroke="#DA70D6" d="M450 87l45 0"/>
<text stroke="none" fill="white" font-size="16" x="505" y="96">
v(x0.bl_0)+4
</text>
<path stroke="#DA70D6" d="M60 246l22 0 0 -1 40 0M122 246l0 -1M122 246l2 0 1 1M125 250l0 -3M125 250l1 2M126 253l0 -1M126 253l1 2M127 257l0 -2M127 257l1 1M128 260l0 -2M128 260l1 1M129 264l0 -3M129 264l1 1M130 267l0 -2M130 267l1 1M131 270l0 -2M131 270l1 1"/>
<path stroke="#DA70D6" d="M132 272l0 -1M132 272l1 2M133 276l0 -2M133 276l1 2M134 279l0 -1M134 279l1 1M135 281l0 -1M135 281l1 2M136 284l0 -1M136 284l1 1M137 286l0 -1M137 286l1 0 1 1 1 0 1 1M141 289l0 -1M141 289l1 1M142 292l0 -2M142 292l1 1M143 294l0 -1"/>
<path stroke="#DA70D6" d="M143 294l1 1M144 296l0 -1M144 296l1 0 1 1 1 0 1 1 51 0 0 -1 1 -1 1 0 0 -1 1 0 1 -1 5 0 1 -1 7 0 1 -1 1 0 0 -1 1 0 0 -1 1 0 0 -1 1 0 1 -1 1 0 0 -1 1 0 1 -1 2 0 0 -1 3 0 0 -1 5 0 0 -1 9 0 1 -1 28 0 1 -1 0 -2 1 -1 0 -1"/>
<path stroke="#DA70D6" d="M275 277l1 -2 0 -1 1 -1 0 -2 1 -1 0 -1 1 -1 0 -1 1 -1 0 -2 1 -1 0 -1 1 -1 0 -1 1 -1 0 -1 1 0 0 -1 2 -2 0 -1 1 0 0 -1 1 0 1 -1 1 0 0 -1 1 0 0 -1 2 0 0 -1 2 0 1 -1 3 0 0 -1 3 0 0 -1 26 0 2 2 8 0 1 -1 18 0M357 248l0 -1"/>
<path stroke="#DA70D6" d="M357 248l61 0M418 249l0 -1M418 249l1 0M419 250l0 -1M419 250l1 0M420 251l0 -1M420 251l1 0M421 252l0 -1M421 252l1 0M422 253l0 -1M422 253l2 0M424 254l0 -1M424 254l2 0 1 1 6 0M433 256l0 -1M433 256l26 0 1 -1 40 0 0 -1 3 0"/>
<path stroke="#DA70D6" d="M503 254l0 -1 2 0 1 -1 1 0 0 -1 2 0 1 -1 2 0 0 -1 2 0 1 -1 3 0 1 -1 3 0 0 -1 26 0M548 247l0 -1M548 247l24 0M572 248l0 -1M572 248l1 0M573 250l0 -2M573 250l1 1M574 253l0 -2M574 253l1 1M575 256l0 -2M575 256l1 1M576 261l0 -4"/>
<path stroke="#DA70D6" d="M576 261l1 2M577 264l0 -1M577 264l1 2M578 268l0 -2M578 268l1 2M579 272l0 -2M579 272l1 2M580 277l0 -3M580 277l1 2M581 281l0 -2M581 281l1 1M582 284l0 -2M582 284l1 1M583 287l0 -2M583 287l1 1M584 290l0 -2M584 290l1 1M585 292l0 -1"/>
<path stroke="#DA70D6" d="M585 292l1 0M586 293l0 -1M586 293l1 1M587 295l0 -1M587 295l1 0 1 1 1 0 1 1 3 0M594 298l0 -1M594 298l44 0 0 -1 1 -1 0 -2 1 0 0 -1 3 -3 2 0 0 -1 7 0 1 -1 2 0 0 -1 1 0 0 -1 1 -1 0 -2 1 -1 0 -1 1 -1 0 -1 1 -1 0 -3 1 -1 0 -1"/>
<path stroke="#DA70D6" d="M661 273l1 -1 0 -1 1 -1 0 -1 1 -1 0 -2 1 -1 0 -1 1 -1 0 -1 1 0 0 -1 1 -1 0 -1 1 -1 0 -1 1 0 0 -1 1 -1 0 -1 1 0 0 -1 1 0 1 -1 1 0 0 -1 1 0 0 -1 2 0 0 -1 3 0 0 -1 4 0 0 -1 7 0 0 -1 18 0 1 -1 3 0M714 246l0 -1M714 246l26 0"/>
<path stroke="#DA70D6" d="M740 246l1 -1 28 0M769 246l0 -1M769 246l12 0 0 -1 14 0M795 246l0 -1M795 246l62 0 1 1M858 248l0 -1M858 248l1 1M859 250l0 -1M859 250l1 0M860 251l0 -1M860 251l1 0M861 252l0 -1M861 252l1 0 1 1 1 0 1 1 2 0 1 1 16 0 0 -1 4 0"/>
<path stroke="#DA70D6" d="M888 254l0 -1 2 0 0 -1 2 0 0 -1 2 0 1 -1 2 0 0 -1 3 0 0 -1 4 0 0 -1 7 0 1 -1 18 0 0 -1 3 0 1 1 4 0"/>
<path stroke="#EE82EE" d="M60 87l45 0"/>
<text stroke="none" fill="white" font-size="16" x="115" y="96">
v(x0.dr0)+2
</text>
<path stroke="#EE82EE" d="M60 304l60 0 1 1M121 306l0 -1M121 306l1 2 0 -1 1 -1 0 -2 10 0M133 305l0 -1M133 305l1 1M134 307l0 -1M134 307l1 1M135 309l0 -1M135 309l1 1M136 313l0 -3M136 313l1 1M137 316l0 -2M137 316l1 1M138 318l0 -1M138 318l1 2M139 321l0 -1"/>
<path stroke="#EE82EE" d="M139 321l1 1M140 323l0 -1M140 323l16 0M156 324l0 -1M156 324l1 0M157 325l0 -1M157 325l1 1M158 327l0 -1M158 327l1 1 0 -2 1 -1 1 0 0 -1 38 0 0 -1 1 0 1 -1 0 -1 1 0 0 -1 1 0 1 -1 1 0 0 -1 1 0 0 -1 2 0 0 -1 3 0 1 -1 7 0 0 -1"/>
<path stroke="#EE82EE" d="M219 314l27 0 0 -1 23 0 1 -1 0 -1 1 -1 0 -1 1 -1 1 0 0 -1 54 0 1 1M328 310l0 -2M328 310l1 -1 0 -1 1 -2 0 -2 1 0M331 306l0 -2M331 306l1 2M332 311l0 -3M332 311l1 2M333 316l0 -3M333 316l1 2M334 321l0 -3M334 321l1 2M335 327l0 -4"/>
<path stroke="#EE82EE" d="M335 327l1 1M336 329l0 -1M336 329l1 0M337 330l0 -1M337 330l1 0M338 331l0 -1M338 331l1 0 1 1 2 0M342 333l0 -1M342 333l11 0M353 334l0 -1M353 334l1 2M354 338l0 -2M354 338l1 2M355 341l0 -1M355 341l1 2M356 345l0 -2M356 345l1 1"/>
<path stroke="#EE82EE" d="M357 348l0 -2M357 348l2 0 1 -1 0 -1 1 0 1 -1 75 0 0 -1 3 0 0 -1 1 -1 0 -1 1 -1 0 -2 1 -1 0 -1 1 -1 5 0 0 -1 16 0M465 335l0 -1M465 335l23 0 0 -1 1 0 0 -1 1 0 0 -2 1 -1 0 -1 1 0 0 -1 2 0 0 -1 6 0 0 -1 22 0 0 -1 25 0M547 327l0 -2"/>
<path stroke="#EE82EE" d="M547 327l1 2 0 -1 1 -11 0 -8 1 -3 1 -1 24 0M575 306l0 -1M575 306l8 0 0 -1 12 0M595 306l0 -1M595 306l4 0 1 1 2 0 1 -1 35 0M638 307l0 -1M638 307l1 0M639 308l0 -1M639 308l1 1 1 0M641 310l0 -1M641 310l1 0M642 311l0 -1M642 311l2 0"/>
<path stroke="#EE82EE" d="M644 312l0 -1M644 312l3 0M647 313l0 -1M647 313l8 0M655 314l0 -1M655 314l5 0 0 -1 5 0 0 -1 1 0 1 -1 3 0 0 -1 2 0 1 -1 2 0 0 -1 2 0 1 -1 2 0 1 -1 3 0 1 -1 7 0 0 -1 16 0 0 -1 2 0 0 -1 1 0 0 -2 1 -2 1 0 0 -1 17 0 1 -1 32 0"/>
<path stroke="#EE82EE" d="M763 296l1 -1 1 0M765 296l0 -1M765 296l1 0 1 1M767 300l0 -3M767 300l1 3M768 305l0 -2M768 305l1 1 0 -2 1 0M770 305l0 -1M770 305l1 1 1 2M772 310l0 -2M772 310l1 2M773 313l0 -1M773 313l1 2M774 316l0 -1M774 316l1 2M775 320l0 -2"/>
<path stroke="#EE82EE" d="M775 320l1 1M776 324l0 -3M776 324l1 2M777 327l0 -1M777 327l1 1M778 329l0 -1M778 329l1 0M779 330l0 -1M779 330l1 0M780 331l0 -1M780 331l1 0M781 332l0 -1M781 332l2 0M783 333l0 -1M783 333l9 0M792 334l0 -1M792 334l1 1M793 337l0 -2"/>
<path stroke="#EE82EE" d="M793 337l1 1M794 342l0 -4M794 342l1 1M795 345l0 -2M795 345l1 1M796 347l0 -1M796 347l1 1 80 0 1 -1 2 0 0 -1 1 -1 0 -4 1 -2 0 -2 1 -3 0 -3 1 -2 0 -4 1 -2 0 -1 1 -1 0 -1 1 -1 0 -1 1 -1 0 -1 3 -3 0 -1 1 0 0 -1 1 0 0 -1 1 0"/>
<path stroke="#EE82EE" d="M894 310l1 -1 1 0 0 -1 2 0 0 -1 2 0 1 -1 3 0 1 -1 7 0 0 -1 16 0 0 -1 1 0 2 -2 0 -4 2 -2 5 0"/>
<path stroke="#B03060" d="M450 103l45 0"/>
<text stroke="none" fill="white" font-size="16" x="505" y="112">
v(x0.dr_0)+2
</text>
<path stroke="#B03060" d="M60 304l60 0 1 1M121 306l0 -1M121 306l1 2M122 309l0 -2 1 -2 0 -1 1 0 1 1M125 307l0 -2M125 307l1 2M126 311l0 -2M126 311l1 1M127 314l0 -2M127 314l1 1M128 316l0 -1M128 316l1 2M129 321l0 -3M129 321l1 1M130 323l0 -1M130 323l1 1"/>
<path stroke="#B03060" d="M131 325l0 -1M131 325l1 1M132 327l0 -1M132 327l1 1M133 330l0 -2M133 330l1 0M134 331l0 -1M134 331l1 0M135 332l0 -1M135 332l1 0M136 333l0 -1M136 333l1 0 1 1 1 0M139 335l0 -1M139 335l6 0 1 1 5 0 0 -1 3 0 0 -1 2 0M156 335l0 -1"/>
<path stroke="#B03060" d="M156 335l1 2M157 340l0 -3M157 340l1 4M158 349l0 -5M158 349l1 4M159 355l0 -2M159 355l2 0 1 1 5 0M167 357l0 -1M167 357l56 0M223 358l0 -1M223 358l44 0 1 -1 2 0 0 -1 2 -2 1 0 1 -1 53 0M327 354l0 -1M327 354l1 0M328 356l0 -2"/>
<path stroke="#B03060" d="M328 356l1 -6 0 -18 1 -17 0 -7 1 -1 0 -2 3 0M334 306l0 -1M334 306l3 0 1 -1 15 0 1 1 1 0 1 1 1 0 0 -1 61 0 2 2M420 309l0 -1M420 309l1 0 2 2 1 0 1 1 2 0M427 313l0 -1M427 313l6 0M433 314l0 -1M433 314l7 0 0 -1 2 0 0 -1 1 1"/>
<path stroke="#B03060" d="M443 313l5 0 1 1 6 0 0 -1 33 0 2 -2 0 -2 1 -2 0 -1 2 -2 2 0 1 -1 11 0 0 -1 28 0 0 -1 11 0 1 1M547 304l0 -2M547 304l1 2M548 308l0 -2M548 308l1 -1 0 -1 1 0 0 -1 22 0M572 306l0 -1M572 306l1 0M573 308l0 -2M573 308l1 1M574 310l0 -1"/>
<path stroke="#B03060" d="M574 310l1 1M575 313l0 -2M575 313l1 1M576 317l0 -3M576 317l1 2M577 321l0 -2M577 321l1 1M578 324l0 -2M578 324l1 1M579 326l0 -1M579 326l1 2M580 329l0 -1M580 329l2 2 1 0M583 332l0 -1M583 332l2 0M585 333l0 -1M585 333l10 0"/>
<path stroke="#B03060" d="M595 335l0 -2M595 335l1 2M596 341l0 -4M596 341l1 1M597 343l0 -1M597 343l1 2M598 346l0 -1M598 346l1 1M599 348l0 -1M599 348l1 1M600 351l0 -2M600 351l1 2M601 354l0 -1M601 354l1 0M602 355l0 -1M602 355l13 0 0 -1 44 0 1 1"/>
<path stroke="#B03060" d="M660 355l1 0 1 -1 0 -1 1 -2 0 -2 1 -4 0 -9 1 -4 0 -4 1 -3 0 -2 1 -2 0 -1 1 -2 0 -1 1 -1 0 -1 1 0 0 -1 1 0 0 -1 3 -3 1 0 0 -1 1 0 1 -1 1 0 0 -1 3 0 0 -1 4 0 0 -1 7 0 0 -1 16 0 0 -1 2 0 0 -1 1 0 0 -2 1 -2 6 0 0 -1 22 0"/>
<path stroke="#B03060" d="M740 297l1 -1 25 0M766 297l0 -1M766 297l1 1M767 300l0 -2M767 300l1 4M768 306l0 -2M768 306l1 0 0 -2 12 0 0 -1 11 0 1 1 1 0M794 305l0 -1M794 305l2 0 1 -1 60 0 2 2M859 307l0 -1M859 307l3 3 1 0M863 311l0 -1M863 311l1 0 1 1"/>
<path stroke="#B03060" d="M865 312l3 0M868 313l0 -1M868 313l12 0 1 -1 7 0 0 -1 2 0 0 -1 2 0 0 -1 3 0 0 -1 2 0 0 -1 3 0 0 -1 4 0 0 -1 7 0 1 -1 16 0 0 -1 1 0 2 -2 0 -4 2 -2 2 0 1 -1 2 0"/>
<path stroke="#40E0D0" d="M60 103l45 0"/>
<text stroke="none" fill="white" font-size="16" x="115" y="112">
v(x0.dw0)
</text>
<path stroke="#40E0D0" d="M60 371l13 0 1 -1 2 0M76 371l0 -1M76 371l3 0 0 -1 2 0 2 -2 4 0 1 1 1 0M89 370l0 -1M89 370l1 0M90 371l0 -1M90 371l1 0 2 2M93 374l0 -1M93 374l1 1M94 376l0 -1M94 376l1 1M95 378l0 -1M95 378l1 -1 0 -9 1 -2 0 -1 3 -3 23 0"/>
<path stroke="#40E0D0" d="M123 362l1 -1 1 0M125 362l0 -1M125 362l169 0 1 -1 1 0 0 -1 1 0 1 2M298 370l0 -8M298 370l1 14M299 413l0 -29M299 413l1 0M300 414l0 -1M300 414l31 0 0 -5 1 -1 3 0 1 1 1 0M337 410l0 -1M337 410l1 0M338 411l0 -1M338 411l1 0"/>
<path stroke="#40E0D0" d="M339 412l0 -1M339 412l1 1 1 0 1 1 76 0 1 -1 1 0 1 -1 16 0 1 -1 3 0 0 -1 9 0 0 -1 42 0 1 1M493 412l0 -2M493 412l1 2 23 0M517 415l0 -1M517 415l1 0M518 418l0 -3M518 418l1 -10 0 -20 1 -16 0 -6 1 -2 0 -1 1 -1 13 0 0 -1 2 0"/>
<path stroke="#40E0D0" d="M537 361l1 -1 1 0 1 -1 0 -2 1 -1 0 -1 1 -1 0 -1 59 0 1 1 336 0"/>
<path stroke="#A0522D" d="M450 119l45 0"/>
<text stroke="none" fill="white" font-size="16" x="505" y="128">
v(x0.dw_0)
</text>
<path stroke="#A0522D" d="M60 363l22 0 0 -1 1 0 2 -2 1 0 0 -1 2 0M88 361l0 -2M88 361l1 2M89 369l0 -6M89 369l1 4M90 379l0 -6M90 379l1 6M91 391l0 -6M91 391l1 7M92 404l0 -6M92 404l1 6M93 414l0 -4M93 414l3 0 0 -1 1 0M97 414l0 -1M97 414l27 0 0 -3"/>
<path stroke="#A0522D" d="M124 411l1 -2 0 -1 8 0M133 409l0 -1M133 409l3 0 1 1 4 0M141 411l0 -1M141 411l1 0 1 1M143 413l0 -1M143 413l3 0M146 414l0 -1M146 414l53 0 1 -1 4 0 0 -1 14 0 1 -1 3 0 0 -1 9 0 1 -1 41 0M273 410l0 -1M273 410l1 2M274 414l0 -2"/>
<path stroke="#A0522D" d="M274 414l19 0 2 2 1 -11 0 -27 1 -8 0 -4 1 -2 0 -1 1 0 0 -1 1 -1M300 362l0 -1M300 362l30 0 1 -1M331 362l0 -1M331 362l182 0 0 -1 1 0 1 -1 1 0M516 364l0 -4M516 364l1 6M517 379l0 -9M517 379l1 18M518 413l0 -16M518 413l1 0"/>
<path stroke="#A0522D" d="M519 413l1 1 15 0M535 415l0 -1M535 415l4 0 1 -1 1 0 0 -1 7 0 1 1 389 0"/>
<path stroke="#FF7F50" d="M60 119l45 0"/>
<text stroke="none" fill="white" font-size="16" x="115" y="128">
v(x0.x6.x0.x0.q)-2
</text>
<path stroke="#FF7F50" d="M60 472l278 0 1 -1 2 0M341 472l0 -1M341 472l77 0 1 -1 1 0 1 -1 14 0 1 1 1 0 1 1 339 0 0 -1 1 0 1 -1 3 0M782 471l0 -1M782 471l2 0 1 1 73 0 0 -1 1 0 0 -1 1 0 1 -1 6 0 0 -1 3 0M870 469l0 -1M870 469l4 0M874 470l0 -1M874 470l1 0"/>
<path stroke="#FF7F50" d="M875 470l1 1 1 0M877 472l0 -1M877 472l61 0"/>
<path stroke="cyan" d="M450 135l45 0"/>
<text stroke="none" fill="white" font-size="16" x="505" y="144">
v(x0.x6.x0.x0.q_)-2
</text>
<path stroke="cyan" d="M60 420l278 0 0 -1 1 0M339 420l0 -1M339 420l437 0 1 -1 3 0M780 420l0 -1M780 420l158 0"/>
<path stroke="magenta" d="M60 135l45 0"/>
<text stroke="none" fill="white" font-size="16" x="115" y="144">
v(x0.x6.x127.x0.q)-4
</text>
<path stroke="magenta" d="M60 530l72 0 1 -1 0 -1 1 0 1 -1 1 0 0 -1 1 0 0 -1 1 0 0 -1 1 -1 0 -3 1 -5 0 -9 1 -5 0 -5 1 -6 0 -4 1 -3 0 -4 1 0 0 -1 427 0 0 -1 5 0M576 478l0 -1M576 478l362 0"/>
<path stroke="#666" d="M450 151l45 0"/>
<text stroke="none" fill="white" font-size="16" x="505" y="160">
v(x0.x6.x127.x0.q_)-4
</text>
<path stroke="#666" d="M60 478l72 0 0 -1 3 0 1 1M136 480l0 -2M136 480l1 2M137 485l0 -3M137 485l1 3M138 491l0 -3M138 491l1 3M139 499l0 -5M139 499l1 6M140 517l0 -12M140 517l1 3M141 523l0 -3M141 523l1 3M142 527l0 -1M142 527l2 2 2 0M146 530l0 -1"/>
<path stroke="#666" d="M146 530l53 0 1 -1 3 0 1 -1 11 0 1 1 2 0M218 530l0 -1M218 530l353 0 2 -2 0 -1 1 0 1 -1 1 0 0 -1 6 0 1 1 1 0M584 527l0 -1M584 527l1 0M585 528l0 -1M585 528l2 0M587 529l0 -1M587 529l4 0M591 530l0 -1M591 530l47 0 2 -2 1 0 1 -1"/>
<path stroke="#666" d="M642 527l12 0 1 1 1 0M656 529l0 -1M656 529l1 0M657 530l0 -1M657 530l281 0"/>
<path stroke="#949494" d="M60 151l45 0"/>
<text stroke="none" fill="white" font-size="16" x="115" y="160">
v(q0)-6
</text>
<path stroke="#949494" d="M60 588l111 0 1 -1 0 -2 1 -3 0 -3 1 -4 0 -7 1 -3 0 -3 1 -3 0 -3 1 -3 0 -5 1 -2 0 -1 1 -2 0 -1 1 -1 0 -1 1 -1 0 -1 1 0 0 -1 2 0 0 -1 177 0 0 -1 2 0 1 1M364 539l0 -3M364 539l1 3M365 545l0 -3M365 545l1 3M366 551l0 -3M366 551l1 4"/>
<path stroke="#949494" d="M367 559l0 -4M367 559l1 4M368 571l0 -8M368 571l1 3M369 578l0 -4M369 578l1 3M370 583l0 -2M370 583l1 2M371 587l0 -2M371 587l1 0M372 588l0 -1M372 588l233 0 1 -1 0 -3 1 -3 0 -7 1 -3 0 -4 1 -3 0 -4 1 -3 0 -2 1 -3 0 -4 1 -2"/>
<path stroke="#949494" d="M612 546l0 -2 1 -1 0 -2 2 -2 0 -1 1 -1 2 0 0 -1 181 0 1 -1 1 0 1 1M802 538l0 -2M802 538l1 2M803 542l0 -2M803 542l1 3M804 548l0 -3M804 548l1 4M805 559l0 -7M805 559l1 4M806 567l0 -4M806 567l1 4M807 575l0 -4M807 575l1 3"/>
<path stroke="#949494" d="M808 581l0 -3M808 581l1 2M809 586l0 -3M809 586l2 2 127 0"/>
<path stroke="#888" d="M450 167l45 0"/>
<text stroke="none" fill="white" font-size="16" x="505" y="176">
v(x0.wren)-8
</text>
<path stroke="#888" d="M60 646l20 0 0 -1 1 -1 0 -1 1 -1 0 -2 1 -1 0 -1 1 -2 0 -1 1 -1 0 -1 1 -1 0 -3 1 -1 0 -1 1 -1 0 -1 1 0 0 -2 1 0 0 -1 1 0 0 -1 1 0 0 -1 1 0 0 -1 1 -1 0 -1 1 0 0 -1 1 -1 0 -2 1 -1 0 -1 1 0 0 -1 2 -2 0 -1 1 -1 0 -1 1 0 0 -1"/>
<path stroke="#888" d="M102 604l1 0 0 -1 1 -1 0 -1 1 0 3 -3 1 0 0 -1 2 0 0 -1 3 0 0 -1 4 0 0 -1 2 0M120 595l0 -1M120 595l2 0M122 596l0 -1M122 596l1 0M123 597l0 -1M123 597l1 1 0 -1 1 -1 2 0 1 -1 9 0 0 -1 5 0 1 1 4 0 0 -1 74 0 0 -1 3 0 1 1 43 0"/>
<path stroke="#888" d="M268 594l1 -1 1 0 0 -1 2 0 0 -1 1 0 1 1 4 0 1 1 9 0 1 1 6 0 1 -4 0 -8 1 -2M297 582l0 -2M297 582l1 3M298 588l0 -3M298 588l1 3M299 598l0 -7M299 598l1 -1 2 0 0 -1 3 0 1 -1 5 0 0 -1 16 0 1 1 1 0M329 596l0 -1M329 596l1 0M330 597l0 -1"/>
<path stroke="#888" d="M330 597l1 0 0 -1 3 0 1 -1 12 0 1 -1 72 0 0 -1 4 0M424 594l0 -1M424 594l64 0 0 -1 2 0 0 -1 1 0 1 -1 1 0M493 592l0 -1M493 592l5 0M498 593l0 -1M498 593l10 0M508 594l0 -1M508 594l5 0 1 -1 1 0M515 594l0 -1M515 594l1 0M516 597l0 -3"/>
<path stroke="#888" d="M516 597l1 0M517 599l0 -2M517 599l1 2M518 604l0 -3M518 604l1 -3 0 -5 1 -2 2 0M522 595l0 -1M522 595l1 0M523 596l0 -1M523 596l1 1M524 598l0 -1M524 598l1 0M525 599l0 -1M525 599l1 1M526 602l0 -2M526 602l1 1M527 605l0 -2M527 605l1 1"/>
<path stroke="#888" d="M528 607l0 -1M528 607l1 1M529 610l0 -2M529 610l1 2M530 613l0 -1M530 613l1 1M531 615l0 -1M531 615l1 1M532 617l0 -1M532 617l1 2M533 621l0 -2M533 621l1 1M534 623l0 -1M534 623l1 1M535 625l0 -1M535 625l1 2M536 628l0 -1M536 628l1 1"/>
<path stroke="#888" d="M537 631l0 -2M537 631l1 1M538 633l0 -1M538 633l1 1M539 635l0 -1M539 635l1 1M540 638l0 -2M540 638l4 4M544 643l0 -1M544 643l1 0M545 644l0 -1M545 644l1 0 1 1 1 0M548 646l0 -1M548 646l188 0 1 1 2 0 1 -1 198 0"/>
</svg>
