<?xml version="1.0" standalone="yes"?>
<!DOCTYPE svg PUBLIC "-//W3C//DTD SVG 1.1//EN"
 "http://www.w3.org/Graphics/SVG/1.1/DTD/svg11.dtd">
<svg xmlns="http://www.w3.org/2000/svg" version="1.1"
  width="100%" height="100%" viewBox="0 0 1024 768"
  style="fill: none; font-family: Helvetica;
 font: Helvetica;
">

<!-- Creator: NGspice -->

<rect x="0" y="0" width="1024" height="768" fill="black" stroke="none"/>
<text stroke="none" fill="white" font-size="16" x="358" y="752">
time
</text>
<text stroke="none" fill="white" font-size="16" x="10" y="16">
tran1: characterizer
</text>
<path stroke="white" stroke-dasharray="1,2" d="M50 704l0 -638"/>
<text stroke="none" fill="white" font-size="16" x="30" y="728">
10.0
</text>
<path stroke="white" stroke-dasharray="1,2" d="M182 704l0 -638"/>
<text stroke="none" fill="white" font-size="16" x="162" y="728">
12.0
</text>
<path stroke="white" stroke-dasharray="1,2" d="M314 704l0 -638"/>
<text stroke="none" fill="white" font-size="16" x="294" y="728">
14.0
</text>
<path stroke="white" stroke-dasharray="1,2" d="M446 704l0 -638"/>
<text stroke="none" fill="white" font-size="16" x="426" y="728">
16.0
</text>
<path stroke="white" stroke-dasharray="1,2" d="M578 704l0 -638"/>
<text stroke="none" fill="white" font-size="16" x="558" y="728">
18.0
</text>
<path stroke="white" stroke-dasharray="1,2" d="M710 704l0 -638"/>
<text stroke="none" fill="white" font-size="16" x="690" y="728">
20.0
</text>
<path stroke="white" stroke-dasharray="1,2" d="M842 704l0 -638"/>
<text stroke="none" fill="white" font-size="16" x="822" y="728">
22.0
</text>
<path stroke="white" stroke-dasharray="1,2" d="M974 704l0 -638"/>
<text stroke="none" fill="white" font-size="16" x="954" y="728">
24.0
</text>
<text stroke="none" fill="white" font-size="16" x="614" y="752">
ns
</text>
<path stroke="white" stroke-dasharray="1,2" d="M50 704l924 0"/>
<text stroke="none" fill="white" font-size="16" x="8" y="712">
-0.2
</text>
<path stroke="white" d="M50 646l924 0"/>
<text stroke="none" fill="white" font-size="16" x="18" y="654">
0.0
</text>
<path stroke="white" stroke-dasharray="1,2" d="M50 588l924 0"/>
<text stroke="none" fill="white" font-size="16" x="18" y="596">
0.2
</text>
<path stroke="white" stroke-dasharray="1,2" d="M50 530l924 0"/>
<text stroke="none" fill="white" font-size="16" x="18" y="538">
0.4
</text>
<path stroke="white" stroke-dasharray="1,2" d="M50 472l924 0"/>
<text stroke="none" fill="white" font-size="16" x="18" y="480">
0.6
</text>
<path stroke="white" stroke-dasharray="1,2" d="M50 414l924 0"/>
<text stroke="none" fill="white" font-size="16" x="18" y="422">
0.8
</text>
<path stroke="white" stroke-dasharray="1,2" d="M50 356l924 0"/>
<text stroke="none" fill="white" font-size="16" x="18" y="364">
1.0
</text>
<path stroke="white" stroke-dasharray="1,2" d="M50 298l924 0"/>
<text stroke="none" fill="white" font-size="16" x="18" y="306">
1.2
</text>
<path stroke="white" stroke-dasharray="1,2" d="M50 240l924 0"/>
<text stroke="none" fill="white" font-size="16" x="18" y="248">
1.4
</text>
<path stroke="white" stroke-dasharray="1,2" d="M50 182l924 0"/>
<text stroke="none" fill="white" font-size="16" x="18" y="190">
1.6
</text>
<path stroke="white" stroke-dasharray="1,2" d="M50 124l924 0"/>
<text stroke="none" fill="white" font-size="16" x="18" y="132">
1.8
</text>
<path stroke="white" stroke-dasharray="1,2" d="M50 66l924 0"/>
<text stroke="none" fill="white" font-size="16" x="18" y="74">
2.0
</text>
<text stroke="none" fill="white" font-size="16" x="10" y="32">
V
</text>
<path stroke="red" d="M462 23l46 0"/>
<text stroke="none" fill="white" font-size="16" x="518" y="32">
v(clk)
</text>
<path stroke="red" d="M171 646l0 -5 1 -2 0 -14 1 -13 1 -14 1 -13 0 -14 1 -13 1 -14 1 -13 1 -14 0 -13 1 -13 1 -14 1 -13 1 -14 0 -13 1 -14 1 -13 1 -14 0 -13 1 -14 1 -13 1 -14 1 -13 0 -14 2 -26 1 -14 0 -13 1 -14 1 -13 1 -14 1 -13 0 -14 1 -13 1 -14"/>
<path stroke="red" d="M199 167l1 -13 0 -14 1 -13 0 -3 165 0 1 1M367 133l0 -8M367 133l1 11M368 158l0 -14M368 158l1 13 1 14 1 13 1 14M372 225l0 -13M372 225l1 13 1 14 1 13M375 279l0 -14M375 279l1 13 1 14 1 13 1 14M379 346l0 -13M379 346l1 14 1 13"/>
<path stroke="red" d="M381 373l1 14M382 400l0 -13M382 400l1 13 1 14 1 13 1 14M386 467l0 -13M386 467l1 14 1 13 1 14M389 521l0 -13M389 521l1 14 1 13 1 14 1 13M393 589l0 -14M393 589l2 26 1 14M396 642l0 -13M396 642l1 4 165 0 0 -9 1 -11 1 -14 0 -13"/>
<path stroke="red" d="M564 599l1 -14 1 -13 1 -14 1 -13 0 -13 1 -14 1 -13 1 -14 0 -13 1 -14 1 -13 1 -14 1 -13 0 -14 1 -13 1 -14 2 -26 0 -14 1 -13 1 -14 1 -13 0 -14 1 -13 1 -14 1 -13 1 -14 0 -13 1 -14 1 -13 1 -14 0 -13 1 -13 1 -14 1 -13 0 -4 165 0"/>
<path stroke="red" d="M757 128l0 -4M757 128l1 5M758 144l0 -11M758 144l1 14 1 13 1 14M761 198l0 -13M761 198l1 14 2 26M764 252l0 -14M764 252l1 13 1 14 1 13 1 14M768 319l0 -13M768 319l1 14 1 13 1 14M771 373l0 -13M771 373l1 14 2 26 1 14M775 440l0 -13"/>
<path stroke="red" d="M775 440l1 14 1 13 1 14M778 494l0 -13M778 494l1 14 1 13 1 14 1 13M782 562l0 -14M782 562l1 13 1 14 2 26M786 629l0 -14M786 629l1 13M787 646l0 -4M787 646l165 0"/>
<path stroke="blue" d="M50 23l46 0"/>
<text stroke="none" fill="white" font-size="16" x="106" y="32">
v(q0)
</text>
<path stroke="blue" d="M171 646l122 0 1 1 1 2 1 1 1 -7 1 -15 1 -18 0 -20 3 -57 1 -18 0 -19 1 -18 1 -17 1 -18 0 -17 1 -16 1 -17 1 -16 1 -15 0 -15 1 -15 2 -28 1 -13 0 -13 1 -12 2 -22 0 -10 2 -18 1 -8 1 -7 0 -7 1 -7 1 -6 1 -5 0 -5 1 -5 1 -4 1 -3"/>
<path stroke="blue" d="M327 159l1 -4 0 -3 1 -3 1 -2 1 -3 0 -2 1 -2 1 -1 1 -2 1 -1 0 -1 1 -1 0 -1 1 0 1 -1 0 -1 1 -1 1 0 2 -2 1 0 1 -1 1 0 1 -1 3 0 0 -1 7 0 1 -1 322 0 1 -1 1 0 0 -1 3 -3M684 122l0 -3M684 122l1 9 1 15 1 23 1 29M688 231l0 -33M688 231l1 37"/>
<path stroke="blue" d="M689 268l1 39 1 40 1 41M692 429l0 -41M692 429l1 41 1 39 1 37M695 576l0 -30M695 576l1 24 1 16 1 12 1 7M699 639l0 -4M699 639l1 3 1 2 1 1 1 0 1 1 248 0"/>
<path stroke="#FFA500" d="M462 39l46 0"/>
<text stroke="none" fill="white" font-size="16" x="518" y="48">
v(x0.pchg)
</text>
<path stroke="#FFA500" d="M171 124l23 0 1 -3 1 0 1 14M197 164l0 -29M197 164l3 108M200 306l0 -34M200 306l1 33M201 346l0 -7M201 346l1 3M202 367l0 -18M202 367l1 24M203 419l0 -28M203 419l2 54 1 24 1 22M207 538l0 -19M207 538l1 16 1 11 1 12M210 592l0 -15"/>
<path stroke="#FFA500" d="M210 592l1 10 1 8 1 9 1 7M214 631l0 -5M214 631l1 4 1 3 1 2M217 643l0 -3M217 643l1 5 1 -3 1 -14 1 -17 0 -16 1 -17 2 -32 0 -15 1 -16 2 -30 1 -14 0 -14 2 -26 1 -11 0 -9 1 -9 3 -24 0 -7 1 -7 2 -12 1 -4 0 -5 1 -4 1 -7 1 -10"/>
<path stroke="#FFA500" d="M242 325l0 -10 3 -30 1 -9 0 -10 3 -27 0 -8 1 -8 2 -14 1 -6 0 -6 1 -6 2 -10 0 -5 2 -8 1 -3 1 -4 0 -3 1 -3 1 -2 1 -3 1 -2 0 -2 2 -4 1 -1 0 -2 4 -4 0 -1 4 -4 1 0 1 -1 1 0 0 -1 2 0 1 -1 1 0 1 -1 4 0 1 -1 8 0 1 -1 287 0 1 1"/>
<path stroke="#FFA500" d="M585 125l1 -2 0 -4 1 4 1 19 1 32M589 210l0 -36M589 210l2 72 1 34M592 334l0 -18M592 334l1 13M593 372l0 -25M593 372l1 26 1 28M595 453l0 -27M595 453l1 26 1 23 1 22 1 19M599 557l0 -14M599 557l1 11 1 13 1 14M602 604l0 -9"/>
<path stroke="#FFA500" d="M602 604l1 8 1 9 1 6 1 5M606 636l0 -4M606 636l2 4 1 3 1 5 0 -4 3 -48 0 -17 2 -32 1 -15 1 -16 0 -15 1 -15 2 -28 0 -13 1 -12 1 -11 2 -18 0 -8 2 -16 1 -7 0 -7 1 -6 3 -15 0 -4 1 -7 2 -20 0 -10 2 -20 1 -9 1 -10 0 -9 2 -18"/>
<path stroke="#FFA500" d="M640 238l1 -8 1 -7 0 -8 1 -6 1 -7 1 -6 0 -6 2 -10 2 -8 0 -4 1 -4 2 -6 0 -3 1 -3 3 -6 0 -2 1 -2 1 -1 1 -2 0 -1 4 -4 0 -1 2 -2 1 0 2 -2 1 0 1 -1 1 0 1 -1 2 0 0 -1 4 0 1 -1 9 0 0 -1 264 0"/>
<path stroke="green" d="M50 39l46 0"/>
<text stroke="none" fill="white" font-size="16" x="106" y="48">
v(x0.wlen)
</text>
<path stroke="green" d="M171 646l38 0 1 1 0 -1 32 0 1 3 2 10 1 -14 0 -36 1 -47 1 -49 1 -50 0 -50 1 -47 1 -45 1 -43 1 -40 0 -33 1 -24 1 -18 1 -12 0 -8 2 -8 1 -2 1 -3 0 -2 3 -3 1 0 1 -1 1 0 1 -1 1 0 1 3 1 4 1 2M271 134l0 -2M271 134l1 2 1 -2 1 -3"/>
<path stroke="green" d="M274 131l0 -2 1 -2 1 -1 1 0 1 -1 3 0 0 -1 114 0 1 1M396 126l0 -1M396 126l1 0M397 127l0 -1 1 -1 1 -7 0 -11 1 10 1 74 1 120 1 116M403 534l0 -107M403 534l1 69 1 27 1 10M406 643l0 -3M406 643l2 2 2 0 1 1 183 0 1 1 0 -1 4 0"/>
<path stroke="green" d="M599 646l1 1 1 -1 33 0M634 649l0 -3M634 649l1 6 1 3 1 -16 1 -38 0 -47 2 -100 1 -49 1 -47 0 -45 1 -43 1 -39 1 -32 0 -24 1 -17 1 -11 1 -7 1 -5 0 -3 1 -3 2 -4 0 -1 2 -2 2 0 0 -1 2 0 1 -1 1 1 2 6 1 2M663 135l0 -3M663 135l1 1"/>
<path stroke="green" d="M664 136l1 -2 1 -3 1 -2 0 -2 2 -2 4 0 1 -1 112 0M786 125l0 -1M786 125l1 1M787 127l0 -1M787 127l1 0 0 -2 1 -7 1 -11 1 10 1 74M792 311l0 -120M792 311l1 116 1 107 1 69M795 630l0 -27M795 630l1 10 1 3 2 2 2 0 1 1 150 0"/>
<path stroke="#FFC0C5" d="M462 55l46 0"/>
<text stroke="none" fill="white" font-size="16" x="518" y="64">
v(x0.saen)
</text>
<path stroke="#FFC0C5" d="M171 646l38 0 1 1 0 -1 2 -2 1 0 2 2 46 0 1 1 3 0 1 -1 12 0 1 7 1 9 1 -17 0 -46 1 -56 1 -54 1 -47 1 -40 0 -33 1 -32 1 -30 1 -27 1 -23 0 -22 1 -24 1 -23 1 -18 0 -11 1 1 1 23 1 -4 1 -14 0 -14 1 -7 1 -4 1 -5 0 -4 1 -3 1 -2"/>
<path stroke="#FFC0C5" d="M301 126l1 -1 1 0 1 -1 92 0M396 125l0 -1M396 125l1 1 1 -1 1 -4 0 -8 1 6 1 43 1 78 1 94M403 435l0 -101M403 435l1 109 1 71 1 23M406 644l0 -6M406 644l2 2 193 0 1 1 0 -2 2 -2 1 1 1 0M606 645l0 -1M606 645l3 0 1 1 4 0 1 1"/>
<path stroke="#FFC0C5" d="M615 647l6 0 1 -1 2 -4 0 -1 1 1 1 3 1 1M627 647l0 -1M627 647l3 0 1 -1 38 0 1 -1M670 647l0 -2M670 647l1 9 1 5 1 -25 1 -50 0 -54 1 -52 1 -44 1 -38 0 -32 1 -30 1 -25 2 -46 0 -24 1 -21 2 -32 0 -14 1 -12 1 -9 1 -8 1 -5 0 -5"/>
<path stroke="#FFC0C5" d="M688 135l1 -3 2 -4 1 -1 0 -1 1 -1 2 0 0 -1 91 0 1 1M787 126l0 -1M787 126l1 0 0 -1 1 -4 1 -8 1 6 1 43M792 240l0 -78M792 240l1 91 1 98 1 109M795 611l0 -73M795 611l1 24 1 7 1 2 2 2 152 0"/>
<path stroke="#A52A2A" d="M50 55l46 0"/>
<text stroke="none" fill="white" font-size="16" x="106" y="64">
v(x0.x8.rstp)
</text>
<path stroke="#A52A2A" d="M171 124l20 0 1 -1 1 3M193 142l0 -16M193 142l1 26 1 13 1 -7 1 -15 0 -12 1 -7 1 -3 1 -4 0 -6 1 -2 1 0 1 1 1 -1 3 0 0 -1 2 2 1 -2 0 -9 1 -13 1 12 1 73 1 101M214 383l0 -95M214 383l1 94 1 77 1 46M217 622l0 -22M217 622l1 10"/>
<path stroke="#A52A2A" d="M218 632l1 0 1 -7 1 5M221 639l0 -9M221 639l1 3 1 2 1 1M224 646l0 -1M224 646l14 0 1 -1 2 0 1 -1 2 0 1 1 11 0M256 646l0 -1M256 646l1 0 1 -1 1 0 2 2 2 4 1 3M264 655l0 -1M264 655l1 -14 1 -40 1 -58 0 -66 1 -66 1 -59 1 -56"/>
<path stroke="#A52A2A" d="M270 296l1 -52 0 -39 1 -27 1 -19 1 -14 0 -8 1 -5 1 -3 1 -2 1 -1 0 -1 3 0 0 -1 119 0 1 1 1 0 1 -1 0 -1 1 -1 2 0 2 2 2 0 1 1 3 0 1 -1 167 0 0 -1 1 4 1 11 1 23 1 20M586 182l0 -1M586 182l1 -13 1 -15 1 -10 0 -5 1 -5 1 -6"/>
<path stroke="#A52A2A" d="M591 128l1 -3 1 0 0 -1 6 0M599 125l0 -1M599 125l1 1 1 -3 1 -11 0 -11 1 34 1 86 2 180M606 489l0 -88M606 489l1 72 1 41 1 21 1 10 0 -2 1 -6 1 6 1 8M613 643l0 -4M613 643l1 2 1 0 1 1 14 0 1 -1 3 0 0 -1 1 1 12 0 1 1 4 0M652 647l0 -1"/>
<path stroke="#A52A2A" d="M652 647l2 2 1 2 1 3 0 -2 1 -19 1 -43 1 -60 0 -65 1 -64 1 -59 1 -57 1 -52 0 -37 1 -24 1 -17 1 -13 1 -7 0 -5 2 -4 1 0 0 -1 3 0 1 -1 3 0 1 1 3 0 0 -1 110 0 1 1 3 -3 0 -1 1 1 1 0 1 1 1 0M799 124l0 -1M799 124l3 0 1 1 2 0"/>
<path stroke="#A52A2A" d="M805 125l1 -1 146 0"/>
</svg>
