<?xml version="1.0" standalone="yes"?>
<!DOCTYPE svg PUBLIC "-//W3C//DTD SVG 1.1//EN"
 "http://www.w3.org/Graphics/SVG/1.1/DTD/svg11.dtd">
<svg xmlns="http://www.w3.org/2000/svg" version="1.1"
  width="100%" height="100%" viewBox="0 0 1024 768"
  style="fill: none; font-family: Helvetica;
 font: Helvetica;
">

<!-- Creator: NGspice -->

<rect x="0" y="0" width="1024" height="768" fill="black" stroke="none"/>
<text stroke="none" fill="white" font-size="16" x="358" y="752">
time
</text>
<text stroke="none" fill="white" font-size="16" x="10" y="16">
tran1: characterizer
</text>
<path stroke="white" stroke-dasharray="1,2" d="M50 704l0 -638"/>
<text stroke="none" fill="white" font-size="16" x="30" y="728">
10.0
</text>
<path stroke="white" stroke-dasharray="1,2" d="M182 704l0 -638"/>
<text stroke="none" fill="white" font-size="16" x="162" y="728">
12.0
</text>
<path stroke="white" stroke-dasharray="1,2" d="M314 704l0 -638"/>
<text stroke="none" fill="white" font-size="16" x="294" y="728">
14.0
</text>
<path stroke="white" stroke-dasharray="1,2" d="M446 704l0 -638"/>
<text stroke="none" fill="white" font-size="16" x="426" y="728">
16.0
</text>
<path stroke="white" stroke-dasharray="1,2" d="M578 704l0 -638"/>
<text stroke="none" fill="white" font-size="16" x="558" y="728">
18.0
</text>
<path stroke="white" stroke-dasharray="1,2" d="M710 704l0 -638"/>
<text stroke="none" fill="white" font-size="16" x="690" y="728">
20.0
</text>
<path stroke="white" stroke-dasharray="1,2" d="M842 704l0 -638"/>
<text stroke="none" fill="white" font-size="16" x="822" y="728">
22.0
</text>
<path stroke="white" stroke-dasharray="1,2" d="M974 704l0 -638"/>
<text stroke="none" fill="white" font-size="16" x="954" y="728">
24.0
</text>
<text stroke="none" fill="white" font-size="16" x="614" y="752">
ns
</text>
<path stroke="white" stroke-dasharray="1,2" d="M50 704l924 0"/>
<text stroke="none" fill="white" font-size="16" x="8" y="712">
-0.2
</text>
<path stroke="white" d="M50 646l924 0"/>
<text stroke="none" fill="white" font-size="16" x="18" y="654">
0.0
</text>
<path stroke="white" stroke-dasharray="1,2" d="M50 588l924 0"/>
<text stroke="none" fill="white" font-size="16" x="18" y="596">
0.2
</text>
<path stroke="white" stroke-dasharray="1,2" d="M50 530l924 0"/>
<text stroke="none" fill="white" font-size="16" x="18" y="538">
0.4
</text>
<path stroke="white" stroke-dasharray="1,2" d="M50 472l924 0"/>
<text stroke="none" fill="white" font-size="16" x="18" y="480">
0.6
</text>
<path stroke="white" stroke-dasharray="1,2" d="M50 414l924 0"/>
<text stroke="none" fill="white" font-size="16" x="18" y="422">
0.8
</text>
<path stroke="white" stroke-dasharray="1,2" d="M50 356l924 0"/>
<text stroke="none" fill="white" font-size="16" x="18" y="364">
1.0
</text>
<path stroke="white" stroke-dasharray="1,2" d="M50 298l924 0"/>
<text stroke="none" fill="white" font-size="16" x="18" y="306">
1.2
</text>
<path stroke="white" stroke-dasharray="1,2" d="M50 240l924 0"/>
<text stroke="none" fill="white" font-size="16" x="18" y="248">
1.4
</text>
<path stroke="white" stroke-dasharray="1,2" d="M50 182l924 0"/>
<text stroke="none" fill="white" font-size="16" x="18" y="190">
1.6
</text>
<path stroke="white" stroke-dasharray="1,2" d="M50 124l924 0"/>
<text stroke="none" fill="white" font-size="16" x="18" y="132">
1.8
</text>
<path stroke="white" stroke-dasharray="1,2" d="M50 66l924 0"/>
<text stroke="none" fill="white" font-size="16" x="18" y="74">
2.0
</text>
<text stroke="none" fill="white" font-size="16" x="10" y="32">
V
</text>
<path stroke="red" d="M462 23l46 0"/>
<text stroke="none" fill="white" font-size="16" x="518" y="32">
v(clk)
</text>
<path stroke="red" d="M165 646l0 -12 1 -10 1 -14 0 -14 1 -14 1 -15 1 -14 0 -14 4 -56 0 -14 1 -14 1 -15 1 -14 0 -14 3 -42 0 -14 2 -28 1 -15 1 -14 0 -14 3 -42 0 -14 1 -14 1 -15 2 -28 0 -14 2 -28 0 -6 165 0M358 128l0 -4M358 128l1 6M359 145l0 -11"/>
<path stroke="red" d="M359 145l2 28 1 15M362 202l0 -14M362 202l4 56M366 272l0 -14M366 272l2 28 1 15M369 329l0 -14M369 329l4 56M373 399l0 -14M373 399l1 14 1 15 1 14M376 456l0 -14M376 456l4 56M380 526l0 -14M380 526l1 14 1 15 1 14M383 583l0 -14"/>
<path stroke="red" d="M383 583l3 42M386 639l0 -14M386 639l1 7 165 0 0 -10 1 -11 2 -28 0 -15 3 -42 0 -14 4 -56 0 -15 3 -42 0 -14 3 -42 1 -15 0 -14 3 -42 0 -14 3 -42 0 -15 4 -56 0 -14 1 -14 0 -7 165 0 1 1M746 134l0 -9M746 134l1 11M747 159l0 -14"/>
<path stroke="red" d="M747 159l1 14 1 15 2 28M751 230l0 -14M751 230l3 42M754 286l0 -14M754 286l1 14 1 15 1 14M757 343l0 -14M757 343l4 56M761 413l0 -14M761 413l1 15 2 28M764 470l0 -14M764 470l4 56M768 540l0 -14M768 540l1 15 2 28M771 597l0 -14"/>
<path stroke="red" d="M771 597l3 42M774 646l0 -7M774 646l165 0"/>
<path stroke="blue" d="M50 23l46 0"/>
<text stroke="none" fill="white" font-size="16" x="106" y="32">
v(q0)
</text>
<path stroke="blue" d="M165 646l134 0 1 1M300 649l0 -2M300 649l2 2 1 -3 1 -14 0 -23 1 -28 1 -30 1 -29 0 -28 1 -28 2 -54 1 -25 0 -25 1 -24 2 -44 0 -19 1 -19 1 -16 1 -15 1 -14 0 -12 2 -20 1 -8 0 -7 1 -6 2 -10 0 -4 3 -9 1 -2 0 -1 1 -2 1 -1 0 -1"/>
<path stroke="blue" d="M330 130l1 -1 1 0 1 -1 0 -1 1 0 1 -1 1 0 1 -1 4 0 1 -1 339 0 4 -4 0 -2 1 0 1 3 1 9 1 17M689 173l0 -26M689 173l1 33 1 40 1 45M692 340l0 -49M692 340l1 52 2 106 1 50M696 589l0 -41M696 589l1 26 1 16 1 8M699 642l0 -3M699 642l1 2"/>
<path stroke="blue" d="M700 644l2 2 237 0"/>
<path stroke="#FFA500" d="M462 39l46 0"/>
<text stroke="none" fill="white" font-size="16" x="518" y="48">
v(x0.pchg)
</text>
<path stroke="#FFA500" d="M165 124l21 0 1 1 0 -2 1 -4 1 4 1 19 1 31M191 209l0 -36M191 209l1 36 1 35M193 305l0 -25M193 305l1 13M194 344l0 -26M194 344l1 30 1 29 1 27M197 457l0 -27M197 457l1 25 1 23 1 21 1 18M201 557l0 -13M201 557l1 11 2 26M204 606l0 -12"/>
<path stroke="#FFA500" d="M204 606l1 9 1 7 1 6 1 5M208 636l0 -3M208 636l1 3 1 1 1 2M211 643l0 -1M211 643l1 4 1 1 1 -13 1 -17 0 -16 3 -48 0 -15 1 -16 2 -30 0 -14 1 -14 2 -26 1 -11 0 -10 2 -18 1 -8 0 -8 2 -14 2 -12 0 -5 1 -5 1 -4 1 -5 0 -8 4 -40"/>
<path stroke="#FFA500" d="M239 291l0 -9 2 -20 1 -9 0 -9 3 -24 0 -7 4 -24 0 -5 1 -5 2 -8 0 -4 1 -3 1 -4 1 -3 1 -2 0 -3 3 -6 0 -2 1 -2 1 -1 1 -2 1 -1 0 -1 3 -3 0 -1 2 -2 1 0 2 -2 1 0 1 -1 1 0 1 -1 1 0 1 -1 4 0 1 -1 8 0 1 -1 282 0 1 1 1 -2 0 -3"/>
<path stroke="#FFA500" d="M575 120l1 2 1 18 1 31 1 35M579 242l0 -36M579 242l1 36M580 294l0 -16M580 294l1 3M581 317l0 -20M581 317l1 26M582 373l0 -30M582 373l1 29 2 54 1 26M586 505l0 -23M586 505l1 21 1 18 1 13M589 568l0 -11M589 568l2 26 1 12M592 615l0 -9"/>
<path stroke="#FFA500" d="M592 615l1 7 1 6 1 5 1 3M596 639l0 -3M596 639l1 1 1 2 1 1M599 648l0 -5M599 648l1 -1 1 -13 1 -17 1 -16 0 -16 3 -48 0 -15 2 -30 2 -28 0 -14 1 -12 1 -11 1 -10 0 -9 1 -8 1 -9 1 -8 1 -7 0 -7 2 -12 1 -5 0 -4 1 -4 1 -5 1 -9"/>
<path stroke="#FFA500" d="M623 330l0 -10 3 -30 1 -9 0 -10 1 -10 2 -18 0 -8 1 -8 3 -21 0 -6 1 -6 2 -10 0 -5 4 -16 0 -3 2 -6 1 -2 0 -2 1 -3 1 -2 1 -1 0 -2 1 -2 3 -3 0 -2 1 -1 1 0 1 -1 0 -1 1 -1 1 0 1 -1 1 0 0 -1 1 0 1 -1 1 0 1 -1 2 0 1 -1 3 0 1 -1"/>
<path stroke="#FFA500" d="M669 125l9 0 0 -1 261 0"/>
<path stroke="green" d="M50 39l46 0"/>
<text stroke="none" fill="white" font-size="16" x="106" y="48">
v(x0.wlen)
</text>
<path stroke="green" d="M165 646l41 0 1 1 1 -1 28 0 1 1 1 3 1 4 0 -1 1 -15 1 -24 1 -28 0 -29 2 -56 1 -23 0 -20 1 -17 1 -16 2 -26 0 -13 1 -12 1 -13 1 -15 0 -16 1 -18 1 -21 1 -22 1 -23 0 -20 1 -18 1 -16 1 -13 0 -12 1 -9 1 -7 1 -6 1 -5 0 -4 1 -3"/>
<path stroke="green" d="M264 133l1 -2 1 -1 0 -2 2 -2 1 0 1 -1 1 0 1 -1 2 0 2 4M276 130l0 -2M276 130l2 4 1 -1 1 -2 0 -2 3 -3 1 0 1 -1 2 0 0 -1 99 0M386 125l0 -1M386 125l1 0M387 126l0 -1M387 126l1 0 1 -2 1 -5 0 -8 1 14 1 59 1 85M393 352l0 -83M393 352l1 75"/>
<path stroke="green" d="M394 427l1 71 1 59 1 40M397 620l0 -23M397 620l1 12 1 7 1 3M400 643l0 -1M400 643l2 2 1 0 1 1 189 0 1 1 1 -1 28 0 1 1 1 3 1 4 1 -2 0 -16 1 -24 1 -28 1 -29 0 -29 1 -27 1 -23 1 -20 1 -17 0 -15 1 -14 1 -13 1 -12 0 -13 1 -13"/>
<path stroke="green" d="M638 359l1 -15 1 -16 1 -19 0 -21 1 -23 1 -22 1 -20 0 -17 1 -16 1 -13 1 -11 0 -9 1 -7 1 -6 1 -5 1 -3 0 -3 2 -4 1 -1 0 -1 1 -1 1 0 1 -1 1 0 1 -1 2 0 1 -1 1 1 1 3 1 2M665 131l0 -2M665 131l1 2 1 0 1 -1 0 -2 5 -5 2 0 1 -1 97 0"/>
<path stroke="green" d="M773 124l2 2 1 -2 1 -5 1 -8M778 125l0 -14M778 125l1 59 1 85 1 83M781 427l0 -75M781 427l1 71 1 59 1 40 1 23M785 632l0 -12M785 632l1 7 1 3 1 1M788 644l0 -1M788 644l1 1 1 0 1 1 148 0"/>
<path stroke="#FFC0C5" d="M462 55l46 0"/>
<text stroke="none" fill="white" font-size="16" x="518" y="64">
v(x0.saen)
</text>
<path stroke="#FFC0C5" d="M165 646l40 0 2 -2 1 0M208 645l0 -1M208 645l1 1 57 0 1 1 3 0 0 -1 13 0 0 -1 1 2 1 9 1 6 1 -24 0 -49 1 -56 1 -54 1 -46 0 -39 1 -33 1 -32 1 -31 1 -26 0 -23 1 -22 1 -23 1 -22 0 -17 1 -10 1 2 1 23 0 -3 1 -12 1 -14 1 -11"/>
<path stroke="#FFC0C5" d="M303 140l1 -4 0 -1 3 -9 0 -1 1 -1 78 0 1 1M387 126l0 -1M387 126l1 0 1 -2 1 -5 0 -7 1 13 1 57 1 85M393 363l0 -96M393 363l1 106 1 103 1 53 1 15M397 645l0 -5M397 645l1 1 192 0 1 1 1 -1 0 -1 1 -1 1 0 1 1 3 0 1 1 4 0 1 1"/>
<path stroke="#FFC0C5" d="M604 647l6 0 1 -1 2 -4 0 -1 1 1 2 4 1 1 2 0 1 -1 52 0 0 -1 1 4 1 11 1 -3 0 -35 1 -53 1 -55 1 -50 0 -41 1 -36 1 -33 1 -29 1 -24 0 -23 1 -23 1 -22 1 -19 0 -16 1 -16 1 -13 1 -10 1 -9 0 -7 2 -10 1 -3 0 -2 1 -1 1 -2 1 0 1 -1"/>
<path stroke="#FFC0C5" d="M696 124l1 0 1 -1 4 0M702 124l0 -1M702 124l72 0M774 125l0 -1M774 125l1 1 1 -2 1 -5 1 -7M778 126l0 -14M778 126l1 56 1 83 1 94M781 463l0 -104M781 463l1 103 1 56 1 16 1 5M785 645l0 -2M785 645l2 0 1 1 151 0"/>
<path stroke="#A52A2A" d="M50 55l46 0"/>
<text stroke="none" fill="white" font-size="16" x="106" y="64">
v(x0.x8.rstp)
</text>
<path stroke="#A52A2A" d="M165 124l19 0 0 -1 1 3 1 11 1 24M187 182l0 -21M187 182l1 2 1 -13 1 -15 1 -10 0 -5 1 -5 1 -7 0 -2 1 -1 2 0 1 -2 1 1 5 0 1 -3 0 -6 1 -10 1 -1 1 60 1 101M208 362l0 -96M208 362l1 95 1 82 1 52M211 618l0 -27M211 618l1 12 1 3"/>
<path stroke="#A52A2A" d="M213 633l1 -7 1 2M215 637l0 -9M215 637l1 4 1 3 1 1M218 646l0 -1M218 646l15 0 1 -1 1 0 1 1 2 0 1 -1 2 0 1 -1 1 1 5 0 1 1 5 0 1 -1 4 0 1 1 3 0M263 647l0 -1M263 647l1 0 1 1 1 0M266 649l0 -1M266 649l3 3 1 -4 0 -14 1 -28"/>
<path stroke="#A52A2A" d="M271 606l1 -42 1 -53 0 -58 1 -59 1 -56 1 -55 0 -51 1 -36 1 -24 1 -17 1 -13 0 -7 1 -4 1 -3 1 -1 0 -1 1 -1 3 0 0 -1 104 0 1 1 1 0 0 -1 1 0 1 -1 1 0 1 -1 1 0 1 1 1 0M400 124l0 -1M400 124l171 0 1 -1M572 126l0 -3M572 126l1 11"/>
<path stroke="#A52A2A" d="M573 137l1 22 1 21M575 183l0 -3M575 183l1 -12 1 -15 1 -10 1 -6 0 -4 1 -7 0 -2 1 0 0 -1 2 -2 5 0 1 1M589 126l0 -1M589 126l1 0 1 -3 1 -7 0 -11 1 16 1 72 1 94 1 89M596 465l0 -89M596 465l1 79 1 49 1 26M599 631l0 -12M599 631l1 1"/>
<path stroke="#A52A2A" d="M600 632l1 -6 1 2 1 9M603 642l0 -5M603 642l1 2 2 2 14 0 1 -1 2 0M623 646l0 -1M623 646l2 0 1 -1 8 0 1 1 6 0 1 -1 4 0 1 1 4 0M651 647l0 -1M651 647l2 0 4 4 1 -2 0 -7 1 -19 1 -34 1 -45 0 -55 1 -58 1 -57 1 -56 1 -57 0 -46"/>
<path stroke="#A52A2A" d="M665 215l1 -30 1 -20 1 -16 0 -10 1 -6 1 -4 1 -2 1 -1 0 -1 3 0 0 -1 6 0 1 1 0 -1 96 0 1 1 1 0 2 -2 1 0 1 -1 1 0 1 1 1 0 1 1 151 0"/>
</svg>
