<?xml version="1.0" standalone="yes"?>
<!DOCTYPE svg PUBLIC "-//W3C//DTD SVG 1.1//EN"
 "http://www.w3.org/Graphics/SVG/1.1/DTD/svg11.dtd">
<svg xmlns="http://www.w3.org/2000/svg" version="1.1"
  width="100%" height="100%" viewBox="0 0 1024 768"
  style="fill: none; font-family: Helvetica;
 font: Helvetica;
">

<!-- Creator: NGspice -->

<rect x="0" y="0" width="1024" height="768" fill="black" stroke="none"/>
<text stroke="none" fill="white" font-size="16" x="358" y="752">
time
</text>
<text stroke="none" fill="white" font-size="16" x="10" y="16">
tran1: characterizer
</text>
<path stroke="white" stroke-dasharray="1,2" d="M60 704l0 -638"/>
<text stroke="none" fill="white" font-size="16" x="40" y="728">
10.0
</text>
<path stroke="white" stroke-dasharray="1,2" d="M173 704l0 -638"/>
<text stroke="none" fill="white" font-size="16" x="153" y="728">
12.0
</text>
<path stroke="white" stroke-dasharray="1,2" d="M286 704l0 -638"/>
<text stroke="none" fill="white" font-size="16" x="266" y="728">
14.0
</text>
<path stroke="white" stroke-dasharray="1,2" d="M399 704l0 -638"/>
<text stroke="none" fill="white" font-size="16" x="379" y="728">
16.0
</text>
<path stroke="white" stroke-dasharray="1,2" d="M512 704l0 -638"/>
<text stroke="none" fill="white" font-size="16" x="492" y="728">
18.0
</text>
<path stroke="white" stroke-dasharray="1,2" d="M625 704l0 -638"/>
<text stroke="none" fill="white" font-size="16" x="605" y="728">
20.0
</text>
<path stroke="white" stroke-dasharray="1,2" d="M738 704l0 -638"/>
<text stroke="none" fill="white" font-size="16" x="718" y="728">
22.0
</text>
<path stroke="white" stroke-dasharray="1,2" d="M851 704l0 -638"/>
<text stroke="none" fill="white" font-size="16" x="831" y="728">
24.0
</text>
<path stroke="white" stroke-dasharray="1,2" d="M964 704l0 -638"/>
<text stroke="none" fill="white" font-size="16" x="944" y="728">
26.0
</text>
<text stroke="none" fill="white" font-size="16" x="614" y="752">
ns
</text>
<path stroke="white" d="M60 704l904 0"/>
<text stroke="none" fill="white" font-size="16" x="18" y="712">
-0.0
</text>
<path stroke="white" stroke-dasharray="1,2" d="M60 646l904 0"/>
<text stroke="none" fill="white" font-size="16" x="28" y="654">
1.0
</text>
<path stroke="white" stroke-dasharray="1,2" d="M60 588l904 0"/>
<text stroke="none" fill="white" font-size="16" x="28" y="596">
2.0
</text>
<path stroke="white" stroke-dasharray="1,2" d="M60 530l904 0"/>
<text stroke="none" fill="white" font-size="16" x="28" y="538">
3.0
</text>
<path stroke="white" stroke-dasharray="1,2" d="M60 472l904 0"/>
<text stroke="none" fill="white" font-size="16" x="28" y="480">
4.0
</text>
<path stroke="white" stroke-dasharray="1,2" d="M60 414l904 0"/>
<text stroke="none" fill="white" font-size="16" x="28" y="422">
5.0
</text>
<path stroke="white" stroke-dasharray="1,2" d="M60 356l904 0"/>
<text stroke="none" fill="white" font-size="16" x="28" y="364">
6.0
</text>
<path stroke="white" stroke-dasharray="1,2" d="M60 298l904 0"/>
<text stroke="none" fill="white" font-size="16" x="28" y="306">
7.0
</text>
<path stroke="white" stroke-dasharray="1,2" d="M60 240l904 0"/>
<text stroke="none" fill="white" font-size="16" x="28" y="248">
8.0
</text>
<path stroke="white" stroke-dasharray="1,2" d="M60 182l904 0"/>
<text stroke="none" fill="white" font-size="16" x="28" y="190">
9.0
</text>
<path stroke="white" stroke-dasharray="1,2" d="M60 124l904 0"/>
<text stroke="none" fill="white" font-size="16" x="18" y="132">
10.0
</text>
<path stroke="white" stroke-dasharray="1,2" d="M60 66l904 0"/>
<text stroke="none" fill="white" font-size="16" x="18" y="74">
11.0
</text>
<text stroke="none" fill="white" font-size="16" x="10" y="32">
     
</text>
<path stroke="red" d="M452 23l45 0"/>
<text stroke="none" fill="white" font-size="16" x="507" y="32">
v(clk)+9.0
</text>
<path stroke="red" d="M181 182l0 -1 1 -1 0 -2 2 -4 0 -3 2 -4 0 -3 2 -4 0 -3 1 -2 1 -3 0 -2 1 -2 1 -3 0 -2 1 -2 1 -3 1 -2 0 -3 2 -4 0 -3 2 -4 0 -3 2 -4 0 -3 1 -2 1 -3 0 -2 1 -2 1 -3 1 -2 0 -2 1 -3 1 -2 0 -2 1 -3 1 -2 0 -3 1 -2 0 -1 142 0M353 79l0 -1"/>
<path stroke="red" d="M353 79l1 2M354 84l0 -3M354 84l2 4M356 91l0 -3M356 91l2 4 1 3M359 100l0 -2M359 100l1 2 1 3M361 107l0 -2M361 107l1 3 1 2M363 114l0 -2M363 114l1 3 1 2M365 121l0 -2M365 121l1 3 1 2M367 128l0 -2M367 128l1 3 1 2M369 136l0 -3"/>
<path stroke="red" d="M369 136l2 4 1 3M372 145l0 -2M372 145l1 2 1 3M374 152l0 -2M374 152l1 2 1 3M376 159l0 -2M376 159l1 3 1 2M378 166l0 -2M378 166l1 3 1 2M380 173l0 -2M380 173l1 3 2 4M383 182l0 -2M383 182l141 0 0 -1 1 -1 0 -2 2 -4 0 -3 2 -4 0 -3"/>
<path stroke="red" d="M529 164l2 -4 0 -3 1 -2 1 -3 0 -2 1 -2 1 -3 1 -2 0 -2 1 -3 1 -2 0 -2 1 -3 1 -2 0 -3 2 -4 0 -3 2 -4 0 -3 1 -2 1 -3 1 -2 0 -2 1 -3 1 -2 0 -2 1 -3 1 -2 0 -2 1 -3 1 -2 0 -3 1 -2 1 -1 141 0M696 79l0 -1M696 79l1 2M697 84l0 -3"/>
<path stroke="red" d="M697 84l2 4 1 3M700 93l0 -2M700 93l1 2 1 3M702 100l0 -2M702 100l1 2 1 3M704 107l0 -2M704 107l1 3 1 2M706 114l0 -2M706 114l1 3 1 2M708 121l0 -2M708 121l1 3 2 4M711 131l0 -3M711 131l1 2 1 3M713 138l0 -2M713 138l1 2 1 3M715 145l0 -2"/>
<path stroke="red" d="M715 145l1 2 1 3M717 152l0 -2M717 152l1 2 1 3M719 159l0 -2M719 159l1 3 1 2M721 166l0 -2M721 166l1 3 2 4M724 176l0 -3M724 176l2 4M726 182l0 -2M726 182l141 0"/>
<path stroke="blue" d="M60 23l45 0"/>
<text stroke="none" fill="white" font-size="16" x="115" y="32">
v(q0)+7.2
</text>
<path stroke="blue" d="M181 286l58 0 1 1 1 0 1 -1 1 -2 0 -3 1 -4 1 -3 0 -4 2 -6 0 -4 3 -9 0 -3 1 -4 1 -3 0 -2 2 -6 0 -3 1 -3 1 -2 0 -3 1 -3 1 -2 0 -2 1 -3 1 -2 0 -2 1 -2 1 -1 1 -2 0 -2 1 -1 1 -2 0 -1 2 -2 0 -1 2 -2 0 -1 3 -3 1 0 2 -2 1 0 0 -1"/>
<path stroke="blue" d="M276 185l2 0 1 -1 3 0 0 -1 7 0 1 -1 301 0 1 -1 1 0 1 1 1 2M595 188l0 -4M595 188l1 4 1 6M597 205l0 -7M597 205l1 6 1 8M599 226l0 -7M599 226l1 8 1 7 1 8M602 256l0 -7M602 256l1 7 1 6M604 274l0 -5M604 274l1 4 1 3M606 283l0 -2"/>
<path stroke="blue" d="M606 283l3 3 258 0"/>
<path stroke="#FFA500" d="M452 39l45 0"/>
<text stroke="none" fill="white" font-size="16" x="507" y="48">
v(x0.pchg)+5.4
</text>
<path stroke="#FFA500" d="M181 286l31 0 0 -1 1 1 1 2 1 4M215 297l0 -5M215 297l2 10M217 312l0 -5M217 312l1 5 1 4M219 326l0 -5M219 326l2 8M221 338l0 -4M221 338l2 8M223 349l0 -3M223 349l1 4 1 2 1 3M226 361l0 -3M226 361l2 4M228 367l0 -2M228 367l2 4"/>
<path stroke="#FFA500" d="M230 373l0 -2M230 373l2 4M232 379l0 -2M232 379l1 2 1 1M234 384l0 -2M234 384l2 2M236 387l0 -1M236 387l1 0 1 1 1 0M239 389l0 -1M239 389l2 0M241 390l0 -1M241 390l5 0 1 1 151 0 1 -1 7 0 1 1 164 0 1 1 1 0 0 -1 168 0 1 -1"/>
<path stroke="#FFA500" d="M742 390l7 0 1 1 117 0"/>
<path stroke="green" d="M60 39l45 0"/>
<text stroke="none" fill="white" font-size="16" x="115" y="48">
v(x0.wlen)+3.6
</text>
<path stroke="green" d="M181 495l24 0 1 1M206 497l0 -1M206 497l1 -1 1 -4 0 -7 2 -14 0 -6 1 -7 0 -4 1 -1 0 -8 3 -18 0 -6 1 -6 1 -5 0 -3 2 -4 0 -2 2 -4 0 -1 1 -1 1 0 0 -1 1 0 1 -1 1 0 1 -1 1 0 1 -1 156 0 0 -1 1 -2 1 6M387 409l0 -15M387 409l1 18"/>
<path stroke="green" d="M388 427l1 16M389 457l0 -14M389 457l1 13 1 10 1 7M392 491l0 -4M392 491l1 2 2 2 153 0 1 1M549 497l0 -1M549 497l1 -1 1 -4 0 -7 2 -14 0 -6 1 -7 1 -4 0 -4 1 -5 0 -7 1 -6 1 -7 0 -6 1 -6 1 -5 0 -3 2 -4 0 -2 1 -2 1 -1 0 -1 1 -1"/>
<path stroke="green" d="M565 394l2 0 0 -1 1 0 1 -1 2 0 0 -1 5 0 1 1M577 393l0 -1M577 393l5 0 0 -1 2 0 0 -1 144 0 0 -1 1 -2 1 6 1 15M731 427l0 -18M731 427l1 16 1 14M733 470l0 -13M733 470l1 10 1 7M735 491l0 -4M735 491l1 2 2 2 129 0"/>
<path stroke="#FFC0C5" d="M452 55l45 0"/>
<text stroke="none" fill="white" font-size="16" x="507" y="64">
v(x0.saen)+1.8
</text>
<path stroke="#FFC0C5" d="M181 600l34 0M215 601l0 -1M215 601l1 0 1 -1 0 -3 1 -6 1 -7 0 -7 1 -8 1 -6 0 -6 1 -5 1 -4 0 -3 2 -6 1 -4 0 -4 1 -4 1 -3 0 -3 2 -6 0 -2 1 -3 1 -2 0 -1 1 -2 1 -1 0 -2 2 -4 0 -2 1 -1 1 0 1 1M239 501l0 -5M239 501l1 3 1 -1"/>
<path stroke="#FFC0C5" d="M241 503l0 -2 1 -2 1 0 0 -1 2 -2 2 0 1 -1 143 0 1 -1 1 4 1 9M394 517l0 -10M394 517l2 22M396 551l0 -12M396 551l2 24M398 586l0 -11M398 586l1 7 1 3M400 598l0 -2M400 598l1 1 2 0M403 600l0 -1M403 600l8 0 2 -2 1 0 1 1 1 0"/>
<path stroke="#FFC0C5" d="M416 600l0 -1M416 600l142 0 1 -1 1 0M560 600l0 -1M560 600l17 0 2 2 1 -2 0 -6 2 -14 0 -8 2 -12 0 -5 1 -5 1 -3 0 -3 2 -8 0 -3 2 -6 1 -4 0 -3 1 -3 1 -2 0 -3 2 -4 0 -2 1 -2 1 -1 0 -1 2 -2 0 -1 1 0 1 -1 1 0 0 -1 2 0 1 -1"/>
<path stroke="#FFC0C5" d="M605 496l5 0 1 -1 123 0 1 -1 1 4 1 9M737 517l0 -10M737 517l2 22M739 550l0 -11M739 550l1 12 1 13M741 586l0 -11M741 586l1 7 1 3 1 2M744 599l0 -1M744 599l3 0 1 1 119 0"/>
<path stroke="#A52A2A" d="M60 55l45 0"/>
<text stroke="none" fill="white" font-size="16" x="115" y="64">
v(x0.wren)
</text>
<path stroke="#A52A2A" d="M181 600l20 0 1 -1 1 0 0 -1 1 2 1 4 1 6M206 617l0 -7M206 617l2 16M208 640l0 -7M208 640l2 14M210 661l0 -7M210 661l1 6M211 671l0 -4M211 671l1 1M212 680l0 -8M212 680l1 5 1 4 1 3M215 695l0 -3M215 695l2 4M217 700l0 -1M217 700l1 2"/>
<path stroke="#A52A2A" d="M218 702l2 2 647 0"/>
</svg>
