<?xml version="1.0" standalone="yes"?>
<!DOCTYPE svg PUBLIC "-//W3C//DTD SVG 1.1//EN"
 "http://www.w3.org/Graphics/SVG/1.1/DTD/svg11.dtd">
<svg xmlns="http://www.w3.org/2000/svg" version="1.1"
  width="100%" height="100%" viewBox="0 0 1024 768"
  style="fill: none; font-family: Helvetica;
 font: Helvetica;
">

<!-- Creator: NGspice -->

<rect x="0" y="0" width="1024" height="768" fill="black" stroke="none"/>
<text stroke="none" fill="white" font-size="16" x="358" y="752">
time
</text>
<text stroke="none" fill="white" font-size="16" x="10" y="16">
tran1: characterizer
</text>
<path stroke="white" d="M60 704l0 -638"/>
<text stroke="none" fill="white" font-size="16" x="45" y="728">
0.0
</text>
<path stroke="white" stroke-dasharray="1,2" d="M135 704l0 -638"/>
<text stroke="none" fill="white" font-size="16" x="120" y="728">
2.0
</text>
<path stroke="white" stroke-dasharray="1,2" d="M210 704l0 -638"/>
<text stroke="none" fill="white" font-size="16" x="195" y="728">
4.0
</text>
<path stroke="white" stroke-dasharray="1,2" d="M285 704l0 -638"/>
<text stroke="none" fill="white" font-size="16" x="270" y="728">
6.0
</text>
<path stroke="white" stroke-dasharray="1,2" d="M360 704l0 -638"/>
<text stroke="none" fill="white" font-size="16" x="345" y="728">
8.0
</text>
<path stroke="white" stroke-dasharray="1,2" d="M435 704l0 -638"/>
<text stroke="none" fill="white" font-size="16" x="415" y="728">
10.0
</text>
<path stroke="white" stroke-dasharray="1,2" d="M510 704l0 -638"/>
<text stroke="none" fill="white" font-size="16" x="490" y="728">
12.0
</text>
<path stroke="white" stroke-dasharray="1,2" d="M585 704l0 -638"/>
<text stroke="none" fill="white" font-size="16" x="565" y="728">
14.0
</text>
<path stroke="white" stroke-dasharray="1,2" d="M660 704l0 -638"/>
<text stroke="none" fill="white" font-size="16" x="640" y="728">
16.0
</text>
<path stroke="white" stroke-dasharray="1,2" d="M735 704l0 -638"/>
<text stroke="none" fill="white" font-size="16" x="715" y="728">
18.0
</text>
<path stroke="white" stroke-dasharray="1,2" d="M810 704l0 -638"/>
<text stroke="none" fill="white" font-size="16" x="790" y="728">
20.0
</text>
<path stroke="white" stroke-dasharray="1,2" d="M885 704l0 -638"/>
<text stroke="none" fill="white" font-size="16" x="865" y="728">
22.0
</text>
<path stroke="white" stroke-dasharray="1,2" d="M960 704l0 -638"/>
<text stroke="none" fill="white" font-size="16" x="940" y="728">
24.0
</text>
<text stroke="none" fill="white" font-size="16" x="614" y="752">
ns
</text>
<path stroke="white" stroke-dasharray="1,2" d="M60 704l900 0"/>
<text stroke="none" fill="white" font-size="16" x="8" y="712">
-10.0
</text>
<path stroke="white" stroke-dasharray="1,2" d="M60 646l900 0"/>
<text stroke="none" fill="white" font-size="16" x="18" y="654">
-8.0
</text>
<path stroke="white" stroke-dasharray="1,2" d="M60 588l900 0"/>
<text stroke="none" fill="white" font-size="16" x="18" y="596">
-6.0
</text>
<path stroke="white" stroke-dasharray="1,2" d="M60 530l900 0"/>
<text stroke="none" fill="white" font-size="16" x="18" y="538">
-4.0
</text>
<path stroke="white" stroke-dasharray="1,2" d="M60 472l900 0"/>
<text stroke="none" fill="white" font-size="16" x="18" y="480">
-2.0
</text>
<path stroke="white" d="M60 414l900 0"/>
<text stroke="none" fill="white" font-size="16" x="28" y="422">
0.0
</text>
<path stroke="white" stroke-dasharray="1,2" d="M60 356l900 0"/>
<text stroke="none" fill="white" font-size="16" x="28" y="364">
2.0
</text>
<path stroke="white" stroke-dasharray="1,2" d="M60 298l900 0"/>
<text stroke="none" fill="white" font-size="16" x="28" y="306">
4.0
</text>
<path stroke="white" stroke-dasharray="1,2" d="M60 240l900 0"/>
<text stroke="none" fill="white" font-size="16" x="28" y="248">
6.0
</text>
<path stroke="white" stroke-dasharray="1,2" d="M60 182l900 0"/>
<text stroke="none" fill="white" font-size="16" x="28" y="190">
8.0
</text>
<path stroke="white" stroke-dasharray="1,2" d="M60 124l900 0"/>
<text stroke="none" fill="white" font-size="16" x="18" y="132">
10.0
</text>
<path stroke="white" stroke-dasharray="1,2" d="M60 66l900 0"/>
<text stroke="none" fill="white" font-size="16" x="18" y="74">
12.0
</text>
<text stroke="none" fill="white" font-size="16" x="10" y="32">
     
</text>
<path stroke="red" d="M450 23l45 0"/>
<text stroke="none" fill="white" font-size="16" x="505" y="32">
v(clk)+10
</text>
<path stroke="red" d="M60 124l0 -1 1 -1 0 -2 1 -1 0 -3 1 -2 0 -1 1 -2 0 -1 1 -2 0 -3 1 -1 0 -2 1 -1 0 -2 1 -1 0 -3 1 -2 0 -1 1 -2 0 -1 1 -2 0 -1 1 -2 0 -3 1 -1 0 -2 1 -1 0 -2 1 -1 0 -2 94 0M169 73l0 -1M169 73l1 1M170 77l0 -3M170 77l1 2M171 80l0 -1"/>
<path stroke="red" d="M171 80l1 2M172 83l0 -1M172 83l1 2M173 88l0 -3M173 88l1 1M174 91l0 -2M174 91l1 1M175 94l0 -2M175 94l1 1M176 97l0 -2M176 97l1 1M177 101l0 -3M177 101l1 2M178 104l0 -1M178 104l1 2M179 107l0 -1M179 107l1 2M180 112l0 -3M180 112l1 1"/>
<path stroke="red" d="M181 115l0 -2M181 115l1 1M182 118l0 -2M182 118l1 1M183 122l0 -3M183 122l1 2 94 0 0 -2 1 -2 0 -1 1 -2 0 -1 1 -2 0 -3 1 -1 0 -2 1 -1 0 -2 1 -1 0 -2 1 -1 0 -3 1 -2 0 -1 1 -2 0 -1 1 -2 0 -3 1 -1 0 -2 1 -1 0 -2 1 -1 0 -2 1 -1"/>
<path stroke="red" d="M292 77l0 -3 1 -2 94 0M387 74l0 -2M387 74l1 2M388 77l0 -1M388 77l1 2M389 80l0 -1M389 80l1 2M390 85l0 -3M390 85l1 1M391 88l0 -2M391 88l1 1M392 91l0 -2M392 91l1 1M393 95l0 -3M393 95l1 2M394 98l0 -1M394 98l1 2M395 101l0 -1"/>
<path stroke="red" d="M395 101l1 2M396 106l0 -3M396 106l1 1M397 109l0 -2M397 109l1 1M398 112l0 -2M398 112l1 1M399 115l0 -2M399 115l1 1M400 119l0 -3M400 119l1 2M401 122l0 -1M401 122l1 2 94 0 0 -2 1 -2 0 -1 1 -2 0 -3 1 -1 0 -2 1 -1 0 -2 1 -1 0 -2"/>
<path stroke="red" d="M501 105l1 -1 0 -3 1 -2 0 -1 1 -2 0 -1 1 -2 0 -3 1 -1 0 -2 1 -1 0 -2 1 -1 0 -3 1 -2 0 -1 1 -2 0 -1 1 -2 94 0M605 74l0 -2M605 74l1 2M606 79l0 -3M606 79l1 1M607 82l0 -2M607 82l1 1M608 85l0 -2M608 85l1 1M609 89l0 -3M609 89l1 2"/>
<path stroke="red" d="M610 92l0 -1M610 92l1 2M611 95l0 -1M611 95l1 2M612 98l0 -1M612 98l1 2M613 103l0 -3M613 103l1 1M614 106l0 -2M614 106l1 1M615 109l0 -2M615 109l1 1M616 113l0 -3M616 113l1 2M617 116l0 -1M617 116l1 2M618 119l0 -1M618 119l1 2"/>
<path stroke="red" d="M619 122l0 -1M619 122l1 2 94 0 0 -4 1 -1 0 -2 1 -1 0 -2 1 -1 0 -2 1 -1 0 -3 1 -2 0 -1 1 -2 0 -1 1 -2 0 -3 1 -1 0 -2 1 -1 0 -2 1 -1 0 -3 1 -2 0 -1 1 -2 0 -1 1 -2 0 -1 1 -2 0 -3 94 0 1 1M823 76l0 -3M823 76l1 1M824 79l0 -2"/>
<path stroke="red" d="M824 79l1 1M825 82l0 -2M825 82l1 1M826 86l0 -3M826 86l1 2M827 89l0 -1M827 89l1 2M828 92l0 -1M828 92l1 2M829 97l0 -3M829 97l1 1M830 100l0 -2M830 100l1 1M831 103l0 -2M831 103l1 1M832 106l0 -2M832 106l1 1M833 110l0 -3M833 110l1 2"/>
<path stroke="red" d="M834 113l0 -1M834 113l1 2M835 116l0 -1M835 116l1 2M836 121l0 -3M836 121l1 1M837 124l0 -2M837 124l94 0"/>
<path stroke="blue" d="M60 23l45 0"/>
<text stroke="none" fill="white" font-size="16" x="115" y="32">
v(x0.wlen)+8
</text>
<path stroke="blue" d="M60 182l21 0 0 -2 1 -2 0 -2 1 -3 0 -3 1 -4 0 -4 1 -4 0 -10 1 -5 0 -5 1 -4 0 -2 1 -1 0 -1 102 0 1 -1 4 0 1 1M196 132l0 -2M196 132l1 1M197 135l0 -2M197 135l1 4M198 142l0 -3M198 142l1 4M199 150l0 -4M199 150l1 4M200 162l0 -8"/>
<path stroke="blue" d="M200 162l1 4M201 171l0 -5M201 171l1 3M202 178l0 -4M202 178l1 2M203 181l0 -1M203 181l1 1 94 0 1 -1 0 -1 1 -2 0 -2 1 -3 0 -7 1 -4 0 -5 1 -5 0 -5 1 -5 0 -8 1 -1 0 -2 1 0 0 -1 102 0 1 -1 4 0M413 130l0 -1M413 130l1 0M414 132l0 -2"/>
<path stroke="blue" d="M414 132l1 1M415 136l0 -3M415 136l1 3M416 146l0 -7M416 146l1 4M417 154l0 -4M417 154l1 4M418 162l0 -4M418 162l1 4M419 175l0 -9M419 175l1 3M420 180l0 -2M420 180l2 2 94 0 1 -1 0 -3 1 -2 0 -3 1 -3 0 -4 1 -4 0 -5 1 -5 0 -10"/>
<path stroke="blue" d="M521 142l1 -4 0 -4 1 -1 0 -2 1 0 0 -1 102 0 0 -1 5 0M631 130l0 -1M631 130l1 0M632 133l0 -3M632 133l1 3M633 139l0 -3M633 139l1 3M634 146l0 -4M634 146l1 4M635 154l0 -4M635 154l1 4M636 166l0 -8M636 166l1 5M637 175l0 -4M637 175l1 3"/>
<path stroke="blue" d="M638 180l0 -2M638 180l1 1M639 182l0 -1M639 182l95 0 0 -1 1 -1 0 -2 1 -2 0 -3 1 -3 0 -8 1 -5 0 -5 1 -5 0 -5 1 -4 0 -4 1 -1 0 -2 1 -1 102 0 0 -1 5 0M849 130l0 -1M849 130l1 2M850 133l0 -1M850 133l1 3M851 139l0 -3M851 139l1 3"/>
<path stroke="blue" d="M852 150l0 -8M852 150l1 4M853 158l0 -4M853 158l1 4M854 166l0 -4M854 166l1 5M855 175l0 -4M855 175l1 3M856 181l0 -3M856 181l1 0M857 182l0 -1M857 182l74 0"/>
<path stroke="#FFA500" d="M450 39l45 0"/>
<text stroke="none" fill="white" font-size="16" x="505" y="48">
v(x0.dc0)+8
</text>
<path stroke="#FFA500" d="M60 130l20 0 0 -1 1 -1M81 129l0 -2M81 129l1 20M82 175l0 -26M82 175l1 8 0 -2 1 1 221 0M305 183l0 -1M305 183l1 0 0 -1 1 -4 0 -10 1 -12 0 -19 1 -4 0 -2 1 -1 205 0 1 -1 0 -1 1 -2M517 154l0 -28M517 154l1 23M518 183l0 -6M518 183l1 -1"/>
<path stroke="#FFA500" d="M519 182l222 0M741 183l0 -1M741 183l1 -1 0 -4 1 -11 0 -12 1 -10 0 -12 1 -2 0 -1 186 0"/>
<path stroke="green" d="M60 39l45 0"/>
<text stroke="none" fill="white" font-size="16" x="115" y="48">
v(x0.wl0)+8
</text>
<path stroke="green" d="M60 182l42 0M102 183l0 -1M102 183l7 0 0 -1 107 0 0 -1 4 0 1 1 92 0 0 -1 1 -1 0 -1 1 -1 0 -4 1 -2 0 -2 1 -3 0 -2 1 -2 0 -5 1 -2 0 -3 1 -2 0 -2 1 -2 0 -3 1 -2 0 -1 1 -1 0 -1 2 -2 0 -1 4 -4 2 0 0 -1 2 0 1 -1 81 0 0 -1 10 0"/>
<path stroke="green" d="M425 129l1 1M426 131l0 -1M426 131l1 0M427 132l0 -1M427 132l1 1M428 135l0 -2M428 135l1 1M429 140l0 -4M429 140l1 2M430 144l0 -2M430 144l1 2M431 149l0 -3M431 149l1 2M432 154l0 -3M432 154l1 2M433 162l0 -6M433 162l1 3M434 168l0 -3"/>
<path stroke="green" d="M434 168l1 2M435 173l0 -3M435 173l1 2M436 179l0 -4M436 179l1 0M437 180l0 -1M437 180l1 1 2 0M440 182l0 -1M440 182l99 0M539 183l0 -1M539 183l6 0 0 -1 106 0 0 -1 4 0M655 182l0 -1M655 182l93 0 1 -1 0 -1 1 -1 0 -1 1 -2 0 -4"/>
<path stroke="green" d="M751 172l1 -3 0 -2 1 -3 0 -2 1 -3 0 -5 1 -2 0 -2 1 -2 0 -2 1 -2 0 -3 1 -2 0 -1 2 -2 0 -1 1 0 0 -1 3 0 0 -1 1 0 1 -1 1 0 0 -1 2 0 1 -1 80 0 2 -2 1 0M853 129l0 -1M853 129l8 0M861 130l0 -1M861 130l1 0M862 131l0 -1M862 131l1 1"/>
<path stroke="green" d="M863 134l0 -2M863 134l1 1M864 136l0 -1M864 136l1 2M865 140l0 -2M865 140l1 2M866 146l0 -4M866 146l1 3M867 152l0 -3M867 152l1 2M868 157l0 -3M868 157l1 2M869 165l0 -6M869 165l1 3M870 170l0 -2M870 170l1 3M871 175l0 -2M871 175l1 2"/>
<path stroke="green" d="M872 180l0 -3M872 180l1 0M873 181l0 -1M873 181l2 0 1 1 55 0"/>
<path stroke="#FFC0C5" d="M450 55l45 0"/>
<text stroke="none" fill="white" font-size="16" x="505" y="64">
v(x0.dbl)+6
</text>
<path stroke="#FFC0C5" d="M60 188l16 0 0 -1 21 0 1 -1M98 187l0 -1M98 187l10 0 1 -1 84 0M193 187l0 -1M193 187l1 0M194 188l0 -1M194 188l1 0M195 189l0 -1M195 189l1 1M196 191l0 -1M196 191l2 2M198 194l0 -1M198 194l1 0M199 195l0 -1M199 195l1 0M200 196l0 -1"/>
<path stroke="#FFC0C5" d="M200 196l1 0 1 1 3 0M205 198l0 -1M205 198l11 0 0 -1 2 0 1 -1 1 0 0 -1 1 0 0 -1 1 0 1 -1 0 -1 1 0 1 -1 1 0 1 -1 1 0 1 -1 3 0 1 -1 61 0 0 -1 21 0 0 -1 1 1 9 0 0 -1 85 0 1 1 1 0M412 188l0 -1M412 188l1 0M413 190l0 -2M413 190l1 0"/>
<path stroke="#FFC0C5" d="M414 191l0 -1M414 191l2 2M416 194l0 -1M416 194l2 2 1 0M419 197l0 -1M419 197l4 0M423 198l0 -1M423 198l10 0 1 -1 2 0 0 -1 2 0 0 -1 1 0 0 -1 1 0 0 -1 1 0 0 -1 1 0 1 -1 1 0 0 -1 2 0 0 -1 4 0 0 -1 61 0 1 -1 21 0 0 -1 6 0"/>
<path stroke="#FFC0C5" d="M539 187l0 -1M539 187l5 0 0 -1 84 0 3 3M631 190l0 -1M631 190l1 0M632 192l0 -2M632 192l1 0M633 193l0 -1M633 193l3 3 1 0M637 197l0 -1M637 197l4 0M641 198l0 -1M641 198l10 0 0 -1 3 0 0 -1 2 0 0 -1 1 -1 1 0 0 -1 1 0 0 -1"/>
<path stroke="#FFC0C5" d="M659 192l1 0 0 -1 2 0 0 -1 2 0 0 -1 4 0 0 -1 61 0 1 -1 21 0 0 -1 6 0M757 187l0 -1M757 187l5 0 0 -1 84 0M846 187l0 -1M846 187l1 0 2 2M849 190l0 -1M849 190l1 1M850 192l0 -1M850 192l1 0M851 193l0 -1M851 193l1 1M852 195l0 -1"/>
<path stroke="#FFC0C5" d="M852 195l1 0M853 196l0 -1M853 196l2 0M855 197l0 -1M855 197l4 0M859 198l0 -1M859 198l10 0 0 -1 3 0 0 -1 1 0 2 -2 1 0 0 -1 1 -1 1 0 0 -1 1 0 1 -1 2 0 0 -1 4 0 0 -1 45 0"/>
<path stroke="#A52A2A" d="M60 55l45 0"/>
<text stroke="none" fill="white" font-size="16" x="115" y="64">
v(x0.dbl_)+6
</text>
<path stroke="#A52A2A" d="M60 188l16 0 1 -1 24 0M101 188l0 -1M101 188l1 1M102 190l0 -1M102 190l1 2M103 193l0 -1M103 193l1 3M104 198l0 -2M104 198l1 2M105 206l0 -6M105 206l1 3M106 211l0 -2M106 211l1 3M107 217l0 -3M107 217l1 3M108 225l0 -5M108 225l1 2"/>
<path stroke="#A52A2A" d="M109 229l0 -2M109 229l1 2M110 233l0 -2M110 233l1 1M111 235l0 -1M111 235l1 1M112 238l0 -2M112 238l1 0M113 239l0 -1M113 239l2 0M115 240l0 -1M115 240l79 0 0 -1 1 0 0 -1 1 0 0 -1 1 -1 0 -1 3 -3 1 0 0 -1 9 0 0 -1 2 0 0 -1"/>
<path stroke="#A52A2A" d="M212 229l1 0 0 -2 1 -2 0 -1 1 -2 0 -2 1 -2 0 -4 1 -2 0 -2 1 -2 0 -2 1 -1 0 -2 1 -1 0 -3 1 -1 0 -1 1 -1 0 -1 1 0 0 -2 1 0 0 -1 1 0 1 -1 1 0 0 -1 1 0 1 -1 3 0 1 -1 61 0 0 -1 25 0M319 188l0 -1M319 188l1 1M320 191l0 -2M320 191l1 1"/>
<path stroke="#A52A2A" d="M321 197l0 -5M321 197l1 2M322 202l0 -3M322 202l1 2M323 207l0 -3M323 207l1 3M324 213l0 -3M324 213l1 3M325 221l0 -5M325 221l1 3M326 226l0 -2M326 226l1 3M327 231l0 -2M327 231l1 1M328 235l0 -3M328 235l1 1M329 237l0 -1M329 237l2 2"/>
<path stroke="#A52A2A" d="M331 239l1 0 1 1 79 0 0 -1 1 0 0 -1 2 -2 0 -1 1 -1 0 -1 1 0 0 -1 2 0 0 -1 8 0 1 -1 1 0 2 -2 0 -1 1 -2 0 -1 1 -2 0 -4 1 -2 0 -2 1 -2 0 -2 1 -2 0 -3 1 -2 0 -1 1 -2 0 -1 1 -1 0 -1 1 -1 0 -1 1 -1 0 -1 1 0 0 -1 1 0 0 -1 1 0"/>
<path stroke="#A52A2A" d="M444 191l1 -1 1 0 0 -1 4 0 0 -1 62 0 0 -1 22 0 0 -1 1 0 1 1 1 0M537 188l0 -1M537 188l1 2M538 193l0 -3M538 193l1 2M539 198l0 -3M539 198l1 2M540 203l0 -3M540 203l1 3M541 212l0 -6M541 212l1 3M542 218l0 -3M542 218l1 3M543 224l0 -3"/>
<path stroke="#A52A2A" d="M543 224l1 2M544 231l0 -5M544 231l1 1M545 234l0 -2M545 234l1 1M546 236l0 -1M546 236l2 2M548 239l0 -1M548 239l2 0M550 240l0 -1M550 240l79 0 3 -3 0 -1 1 -1 0 -1 1 0 0 -1 1 0 2 -2 8 0 1 -1 1 0 1 -1 0 -1 1 0 0 -3 1 -2 0 -1"/>
<path stroke="#A52A2A" d="M650 222l1 -2 0 -3 1 -2 0 -2 1 -2 0 -3 1 -2 0 -2 1 -1 0 -2 1 -1 0 -2 1 -1 0 -1 1 -1 0 -1 1 0 0 -1 2 -2 1 0 0 -1 2 0 0 -1 4 0 0 -1 62 0 0 -1 21 0 1 -1 1 0 2 2M755 190l0 -2M755 190l1 1M756 193l0 -2M756 193l1 3M757 201l0 -5"/>
<path stroke="#A52A2A" d="M757 201l1 2M758 206l0 -3M758 206l1 3M759 212l0 -3M759 212l1 3M760 218l0 -3M760 218l1 3M761 226l0 -5M761 226l1 3M762 231l0 -2M762 231l1 1M763 234l0 -2M763 234l1 1M764 237l0 -2M764 237l1 1 1 0M766 239l0 -1M766 239l2 0"/>
<path stroke="#A52A2A" d="M768 240l0 -1M768 240l79 0 2 -2 0 -1 1 0 0 -1 1 -1 0 -1 1 0 0 -1 1 0 0 -1 1 0 1 -1 8 0 0 -1 2 0 1 -1 0 -1 1 -2 0 -1 1 -2 0 -1 1 -2 0 -5 1 -2 0 -2 1 -1 0 -2 1 -2 0 -3 1 -2 0 -1 1 -1 0 -1 1 -1 0 -1 1 -1 0 -1 4 -4 2 0 0 -1"/>
<path stroke="#A52A2A" d="M882 189l4 0 0 -1 45 0"/>
<path stroke="#F0E68C" d="M450 71l45 0"/>
<text stroke="none" fill="white" font-size="16" x="505" y="80">
v(x0.saen)+6
</text>
<path stroke="#F0E68C" d="M60 240l54 0 0 -1 1 -1 0 -3 1 -3 0 -3 1 -4 0 -4 1 -3 0 -6 1 -2 0 -3 1 -3 0 -3 1 -3 0 -2 1 -2 0 -3 1 -1 0 -1 1 0 0 -1 1 0 0 -1 4 0 1 2M130 191l0 -2M130 191l1 0 0 -1 1 -1 0 -1 71 0 1 -1 3 0M207 188l0 -1M207 188l1 0M208 189l0 -1"/>
<path stroke="#F0E68C" d="M208 189l1 0M209 191l0 -2M209 191l1 1M210 196l0 -4M210 196l1 3M211 202l0 -3M211 202l1 3M212 208l0 -3M212 208l1 4M213 220l0 -8M213 220l1 5M214 230l0 -5M214 230l1 4M215 237l0 -3M215 237l1 2M216 240l0 -1M216 240l115 0 1 -1"/>
<path stroke="#F0E68C" d="M332 239l0 -1 1 -2 0 -3 1 -3 0 -3 1 -4 0 -7 1 -3 0 -3 1 -3 0 -4 1 -2 0 -5 1 -1 0 -2 1 -1 0 -1 1 -1 0 -1 1 -1 79 0 1 -1 3 0M425 188l0 -1M425 188l1 0M426 189l0 -1M426 189l1 2M427 192l0 -1M427 192l1 2M428 196l0 -2M428 196l1 3"/>
<path stroke="#F0E68C" d="M429 205l0 -6M429 205l1 3M430 211l0 -3M430 211l1 4M431 219l0 -4M431 219l1 4M432 229l0 -6M432 229l1 4M433 238l0 -5M433 238l1 1M434 240l0 -1M434 240l115 0 0 -1 1 -1 0 -2 1 -3 0 -6 1 -4 0 -4 1 -3 0 -3 1 -3 0 -3 1 -3 0 -6"/>
<path stroke="#F0E68C" d="M555 198l1 -2 0 -3 1 -2 0 -1 1 -1M558 192l0 -3M558 192l1 0 0 -2 1 -1 0 -1 79 0 0 -1 3 0 2 2 1 2M645 192l0 -1M645 192l1 2M646 199l0 -5M646 199l1 3M647 205l0 -3M647 205l1 3M648 212l0 -4M648 212l1 4M649 225l0 -9M649 225l1 5"/>
<path stroke="#F0E68C" d="M650 234l0 -4M650 234l1 3M651 239l0 -2M651 239l1 0M652 240l0 -1M652 240l115 0 0 -1 1 -1 0 -5 1 -3 0 -3 1 -4 0 -4 1 -3 0 -6 1 -3 0 -3 1 -2 0 -2 1 -2 0 -4 1 -2 0 -1 1 -1 0 -1 1 0 0 -1 80 0 0 -1 3 0 2 2M862 191l0 -2M862 191l1 1"/>
<path stroke="#F0E68C" d="M863 194l0 -2M863 194l1 2M864 199l0 -3M864 199l1 3M865 205l0 -3M865 205l1 3M866 215l0 -7M866 215l1 4M867 223l0 -4M867 223l1 6M868 233l0 -4M868 233l1 4M869 239l0 -2M869 239l1 1 61 0"/>
<path stroke="#DDA0DD" d="M60 71l45 0"/>
<text stroke="none" fill="white" font-size="16" x="115" y="80">
v(x0.bl0)+4
</text>
<path stroke="#DDA0DD" d="M60 246l21 0 0 -1 1 -1 12 0M94 245l0 -1M94 245l1 0M95 246l0 -1M95 246l3 0 0 -1M98 246l1 0 1 -1M100 246l0 -1M100 246l1 0M101 247l0 -1M101 247l1 0M102 249l0 -2M102 249l1 1M103 252l0 -2M103 252l1 2M104 256l0 -2M104 256l1 2"/>
<path stroke="#DDA0DD" d="M105 263l0 -5M105 263l1 3M106 268l0 -2M106 268l1 3M107 273l0 -2M107 273l1 3M108 279l0 -3M108 279l1 2M109 282l0 -1M109 282l2 0 0 -1 1 -1 0 -2 1 -1 0 -1 2 -2 0 -1 1 0 0 -1 1 0 1 -1 2 0 0 -1 3 0 1 -1 5 0 0 -1 12 0 0 -1"/>
<path stroke="#DDA0DD" d="M141 267l44 0 0 -1 11 0M196 267l0 -1M196 267l2 -2 0 -1 1 -1 0 -1 1 -1 0 -1 1 0 0 -1 1 0 0 -1 1 0 1 -1 3 0 0 -1 11 0 0 -1 2 0 0 -1 1 0 1 -1 1 0 0 -1 1 -1 1 0 0 -1 1 0 2 -2 2 0 0 -1 3 0 1 -1 64 0 2 -2 12 0 1 1 0 -1 5 0"/>
<path stroke="#DDA0DD" d="M318 245l0 -1M318 245l1 0M319 246l0 -1M319 246l1 1M320 249l0 -2M320 249l1 2M321 255l0 -4M321 255l1 3M322 260l0 -2M322 260l1 3M323 266l0 -3M323 266l1 3M324 272l0 -3M324 272l1 3M325 280l0 -5M325 280l1 3M326 286l0 -3M326 286l1 2"/>
<path stroke="#DDA0DD" d="M327 290l0 -2M327 290l1 1M328 294l0 -3M328 294l1 1M329 296l0 -1M329 296l1 0 1 1 1 0M332 298l0 -1M332 298l83 0 0 -2 1 -2 0 -2 1 -1 0 -1 1 0 0 -1 9 0 1 -1 1 0 0 -1 1 0 0 -1 1 0 0 -2 1 -1 0 -2 1 -1 0 -5 1 -2 0 -2 1 -2 0 -2"/>
<path stroke="#DDA0DD" d="M435 267l1 -2 0 -4 1 -1 0 -2 1 -1 0 -1 1 -1 0 -1 1 -1 0 -1 4 -4 2 0 0 -1 4 0 0 -1 66 0 1 -1 0 -1 12 0 2 2 101 0M632 247l0 -1M632 247l1 2M633 250l0 -1M633 250l2 2M635 253l0 -1M635 253l1 0M636 254l0 -1M636 254l1 0 1 1"/>
<path stroke="#DDA0DD" d="M638 255l4 0M642 256l0 -1M642 256l5 0 1 -1 5 0 1 -1 1 0 1 -1 0 -1 1 0 3 -3 1 0 1 -1 1 0 0 -1 4 0 0 -1 67 0 0 -1 1 0 0 -1 13 0M748 245l0 -1M748 245l1 -1 5 0M754 245l0 -1M754 245l1 1M755 248l0 -2M755 248l1 1M756 251l0 -2"/>
<path stroke="#DDA0DD" d="M756 251l1 3M757 259l0 -5M757 259l1 3M758 265l0 -3M758 265l1 3M759 271l0 -3M759 271l1 3M760 277l0 -3M760 277l1 3M761 286l0 -6M761 286l1 2M762 290l0 -2M762 290l1 2M763 293l0 -1M763 293l1 1M764 295l0 -1M764 295l2 2 1 0"/>
<path stroke="#DDA0DD" d="M767 297l1 1 82 0 1 -2 0 -2 1 -1 0 -2 2 -2 8 0 1 -1 2 0 0 -1 1 0 0 -2 1 -1 0 -1 1 -2 0 -2 1 -2 0 -4 1 -3 0 -2 1 -2 0 -1 1 -2 0 -3 1 -2 0 -1 1 -1 0 -1 1 -1 0 -1 1 -1 0 -1 1 0 0 -1 1 0 0 -1 1 0 0 -1 2 0 1 -1 3 0 1 -1 45 0"/>
<path stroke="#DA70D6" d="M450 87l45 0"/>
<text stroke="none" fill="white" font-size="16" x="505" y="96">
v(x0.bl_0)+4
</text>
<path stroke="#DA70D6" d="M60 246l21 0 0 -1 1 -1 12 0M94 245l0 -1M94 245l1 0M95 246l0 -1M95 246l3 0M98 249l0 -3M98 249l1 1M99 252l0 -2M99 252l1 2M100 255l0 -1M100 255l1 2M101 260l0 -3M101 260l1 2M102 264l0 -2M102 264l1 1M103 267l0 -2M103 267l1 2"/>
<path stroke="#DA70D6" d="M104 270l0 -1M104 270l1 2M105 275l0 -3M105 275l1 2M106 279l0 -2M106 279l1 1M107 282l0 -2M107 282l1 1M108 284l0 -1M108 284l1 1 2 0M111 286l0 -1M111 286l1 0M112 288l0 -2M112 288l1 1M113 291l0 -2M113 291l1 1M114 294l0 -2"/>
<path stroke="#DA70D6" d="M114 294l1 1M115 296l0 -1M115 296l1 1 1 0M117 298l0 -1M117 298l80 0 0 -1 1 -1 0 -1 1 0 0 -1 1 0 0 -1 3 0 0 -1 7 0 1 -1 2 0 0 -1 1 -1 0 -1 1 -1 0 -1 1 -1 0 -4 1 -3 0 -2 1 -2 0 -2 1 -3 0 -2 1 -2 0 -3 1 -2 0 -1 1 -1 0 -2"/>
<path stroke="#DA70D6" d="M222 256l1 -1 0 -2 1 0 0 -1 2 -2 1 0 0 -1 1 0 0 -1 2 0 0 -1 3 0 1 -1 64 0 2 -2 12 0 1 1 0 -1 8 0M321 245l0 -1M321 245l2 0 1 -1 90 0 1 1M415 247l0 -2M415 247l1 1M416 251l0 -3M416 251l1 0M417 252l0 -1M417 252l2 2 1 0M420 255l0 -1"/>
<path stroke="#DA70D6" d="M420 255l4 0M424 256l0 -1M424 256l9 0 1 -1 2 0 0 -1 1 0 2 -2 1 0 0 -1 1 -1 1 0 0 -1 1 0 1 -1 2 0 0 -1 4 0 0 -1 66 0 1 -1 0 -1 12 0 1 1 1 0M531 246l0 -1M531 246l2 0 1 -1 2 0M536 246l0 -1M536 246l1 0M537 247l0 -1M537 247l1 2"/>
<path stroke="#DA70D6" d="M538 252l0 -3M538 252l1 2M539 257l0 -3M539 257l1 2M540 262l0 -3M540 262l1 3M541 271l0 -6M541 271l1 3M542 277l0 -3M542 277l1 3M543 283l0 -3M543 283l1 2M544 290l0 -5M544 290l1 1M545 293l0 -2M545 293l1 1M546 295l0 -1M546 295l1 0"/>
<path stroke="#DA70D6" d="M547 296l0 -1M547 296l1 0M548 297l0 -1M548 297l2 0M550 298l0 -1M550 298l82 0 1 -2 0 -1 1 -2 0 -1 1 -1 0 -1 1 0 0 -1 9 0 0 -1 2 0 0 -1 1 0 0 -1 1 -1 0 -2 1 -2 0 -2 1 -2 0 -2 1 -3 0 -2 1 -2 0 -4 1 -2 0 -1 1 -2 0 -1 1 -1"/>
<path stroke="#DA70D6" d="M656 257l0 -2 1 -1 0 -1 2 -2 0 -1 1 0 0 -1 1 0 1 -1 1 0 1 -1 3 0 0 -1 67 0 0 -1 1 0 0 -1 13 0M748 245l0 -1M748 245l1 -1 101 0M850 245l0 -1M850 245l1 2M851 248l0 -1M851 248l1 2M852 251l0 -1M852 251l1 1M853 253l0 -1M853 253l1 0"/>
<path stroke="#DA70D6" d="M854 254l0 -1M854 254l2 0M856 255l0 -1M856 255l3 0 1 1 8 0 1 -1 3 0 0 -1 1 0 0 -1 1 0 0 -1 1 0 1 -1 0 -1 1 0 1 -1 1 0 0 -1 2 0 1 -1 3 0 0 -1 46 0"/>
<path stroke="#EE82EE" d="M60 87l45 0"/>
<text stroke="none" fill="white" font-size="16" x="115" y="96">
v(x0.dr0)+2
</text>
<path stroke="#EE82EE" d="M60 304l32 0 0 -1 1 1 1 2M94 310l0 -4M94 310l1 -1 0 -5 6 0 2 2M103 307l0 -1M103 307l1 2M104 310l0 -1M104 310l1 1M105 314l0 -3M105 314l1 2M106 317l0 -1M106 317l1 1M107 319l0 -1M107 319l1 1M108 321l0 -1M108 321l1 0 1 1"/>
<path stroke="#EE82EE" d="M110 322l1 0 1 1 2 0 1 1 3 0M118 326l0 -2M118 326l1 1 1 -2 63 0 0 -1 15 0 0 -1 1 -1 0 -1 1 -1 0 -1 3 -3 1 0 0 -1 3 0 1 -1 3 0 1 -1 0 -2 1 -3 0 -4 4 0 0 -1 94 0M311 305l0 -2M311 305l1 3 1 -3 0 -1 1 -1 1 0 1 1M316 305l0 -1"/>
<path stroke="#EE82EE" d="M316 305l1 2M317 309l0 -2M317 309l1 1M318 314l0 -4M318 314l1 1M319 317l0 -2M319 317l1 2M320 321l0 -2M320 321l1 2M321 327l0 -4M321 327l1 1M322 329l0 -1M322 329l2 2M324 332l0 -1M324 332l1 0M325 333l0 -1M325 333l2 0 1 1"/>
<path stroke="#EE82EE" d="M328 334l2 0 1 1 3 0 0 -1 1 0M335 335l0 -1M335 335l1 2M336 340l0 -3M336 340l1 1M337 342l0 -1M337 342l1 0 0 -1 1 0 1 -1 2 0 0 -1 47 0M389 340l0 -1M389 340l40 0 0 -2 1 -1 0 -2 1 -3 0 -3 1 -2 0 -1 1 -1 0 -1 2 0 0 -1 5 0"/>
<path stroke="#EE82EE" d="M440 323l0 -1 23 0 0 -1 66 0M529 324l0 -3M529 324l1 3 0 -12 1 -8 0 -3 22 0 1 1 0 -1 2 0M556 305l0 -1M556 305l1 -1 75 0M632 305l0 -1M632 305l1 1M633 307l0 -1M633 307l1 1M634 309l0 -1M634 309l2 2M636 312l0 -1M636 312l2 0"/>
<path stroke="#EE82EE" d="M638 313l0 -1M638 313l4 0M642 314l0 -1M642 314l4 0 1 -1 0 -1 1 -1 0 -3 1 -2 0 -2 1 -1 25 0 1 -1 43 0 1 -1 27 0M747 307l0 -6M747 307l1 1 0 -3 1 -1 0 -1 5 0M754 304l0 -1M754 304l1 1M755 306l0 -1M755 306l1 1M756 309l0 -2"/>
<path stroke="#EE82EE" d="M756 309l1 2M757 316l0 -5M757 316l1 2M758 321l0 -3M758 321l1 2M759 325l0 -2M759 325l1 2M760 328l0 -1M760 328l1 1M761 331l0 -2M761 331l1 0M762 332l0 -1M762 332l1 0 1 1 2 0M766 334l0 -1M766 334l4 0 1 1M771 339l0 -4M771 339l1 2"/>
<path stroke="#EE82EE" d="M772 342l0 -1M772 342l1 1 0 -1 1 0 1 -1 3 0 0 -1 44 0M822 341l0 -1M822 341l42 0 1 -1 0 -1 1 -1 0 -5 1 -3 0 -2 1 -1 0 -1 1 0 0 -1 2 0 0 -1 5 0 0 -1 24 0 1 -1 30 0"/>
<path stroke="#B03060" d="M450 103l45 0"/>
<text stroke="none" fill="white" font-size="16" x="505" y="112">
v(x0.dr_0)+2
</text>
<path stroke="#B03060" d="M60 304l32 0 0 -1 1 1 1 2M94 310l0 -4M94 310l1 -1 0 -5 3 0M98 306l0 -2M98 306l1 2M99 309l0 -1M99 309l1 2M100 313l0 -2M100 313l1 1M101 318l0 -4M101 318l1 1M102 321l0 -2M102 321l1 2M103 324l0 -1M103 324l1 2M104 327l0 -1"/>
<path stroke="#B03060" d="M104 327l1 1M105 330l0 -2M105 330l2 2 1 0M108 333l0 -1M108 333l2 0M110 334l0 -1M110 334l3 0 1 1 2 0 0 -1 2 0M118 339l0 -5M118 339l1 5M119 346l0 -2M119 346l3 0M122 347l0 -1M122 347l89 0 1 -1 0 -1 1 -1 0 -2 1 -1 97 0M311 344l0 -3"/>
<path stroke="#B03060" d="M311 344l1 2 0 -18 1 -19 0 -4 1 -1 5 0 2 2M321 307l0 -1M321 307l1 0M322 308l0 -1M322 308l1 1M323 310l0 -1M323 310l1 0M324 311l0 -1M324 311l1 0M325 312l0 -1M325 312l1 1 1 0M327 314l0 -1M327 314l1 0 1 1 2 0M331 316l0 -1"/>
<path stroke="#B03060" d="M331 316l4 0M335 317l0 -1M335 317l1 1 1 0 1 -1 4 0 1 1 72 0 2 -2 1 0 1 -1 3 0 0 -1 7 0 0 -1 1 -2 0 -3 1 -4 0 -4 1 -3 0 -1 1 -2 0 -1 1 0 0 -1 4 0 0 -1 8 0M446 292l0 -1M446 292l26 0 1 1 40 0M513 294l0 -1M513 294l14 0 1 -1"/>
<path stroke="#B03060" d="M528 293l1 1M529 298l0 -4M529 298l1 6M530 307l0 -3M530 307l1 -2 0 -1 3 0 0 -1 2 0M536 304l0 -1M536 304l1 0M537 305l0 -1M537 305l1 1M538 309l0 -3M538 309l1 2M539 313l0 -2M539 313l1 3M540 318l0 -2M540 318l1 3M541 325l0 -4"/>
<path stroke="#B03060" d="M541 325l1 2M542 329l0 -2M542 329l2 2M544 332l0 -1M544 332l1 0 1 1 2 0M548 334l0 -1M548 334l5 0M553 337l0 -3M553 337l1 2M554 341l0 -2M554 341l1 1M555 344l0 -2M555 344l1 0M556 345l0 -1M556 345l1 0M557 346l0 -1M557 346l22 0"/>
<path stroke="#B03060" d="M579 346l0 -1 68 0 0 -1 1 -1 0 -1 1 -1 0 -1 1 -1 56 0 0 -1 41 0M747 343l0 -5M747 343l1 -17 0 -17 1 -4 0 -1 22 0M771 305l0 -1M771 305l1 0 1 -1 77 0M850 305l0 -1M850 305l1 1M851 307l0 -1M851 307l1 1M852 310l0 -2M852 310l1 0"/>
<path stroke="#B03060" d="M853 311l0 -1M853 311l1 0M854 312l0 -1M854 312l2 0M856 313l0 -1M856 313l4 0M860 314l0 -1M860 314l4 0 1 -1 0 -1 1 -2 0 -6 1 -4 0 -3 1 -2 0 -1 1 0 0 -1 1 -1 2 0 0 -1 11 0 1 1 25 0M909 293l0 -1M909 293l22 0"/>
<path stroke="#40E0D0" d="M60 103l45 0"/>
<text stroke="none" fill="white" font-size="16" x="115" y="112">
v(x0.dw0)
</text>
<path stroke="#40E0D0" d="M60 386l19 0 0 -1 1 0 2 -2 1 0M83 384l0 -1M83 384l1 0 1 1M85 387l0 -2M85 387l1 1M86 389l0 -1M86 389l1 1 0 -2 1 -10 0 -11 1 -2 0 -2 1 0 0 -1 7 0 0 -1 1 -1M98 361l0 -1M98 361l1 1 8 0 1 1M108 366l0 -3M108 366l1 2M109 370l0 -2"/>
<path stroke="#40E0D0" d="M109 370l1 1M110 372l0 -1M110 372l1 1 0 -1 1 -1 0 -2 1 -2 0 -1 1 -1 0 -1 1 0 0 -1 2 0 0 -1 97 0 0 -1 1 1 1 2 0 -2 76 0 1 -1 1 0 0 -1 1 0M295 362l0 -2M295 362l1 7M296 381l0 -12M296 381l1 20M297 411l0 -10M297 411l1 2M298 414l0 -1"/>
<path stroke="#40E0D0" d="M298 414l17 0 0 -5 1 -5 0 -3 3 0 1 1 1 0 1 1M322 404l0 -1M322 404l1 1M323 406l0 -1M323 406l1 1M324 408l0 -1M324 408l1 1M325 410l0 -1M325 410l1 0M326 411l0 -1M326 411l2 0 1 1 1 0M330 413l0 -1M330 413l1 0M331 414l0 -1"/>
<path stroke="#40E0D0" d="M331 414l84 0 0 -1 1 0 0 -2 2 0 1 -1 10 0 1 -1 1 0 1 -1 0 -1 1 0M433 414l0 -7M433 414l1 1 0 -1 79 0M513 415l0 -1M513 415l1 0M514 417l0 -2M514 416l1 -10 0 -17 1 -15 0 -7 1 -2 0 -2 1 -1 6 0 0 -1 2 0 0 -1 1 0 0 -1 1 0 0 -2"/>
<path stroke="#40E0D0" d="M528 357l1 -1 0 -1 1 -1 0 -1 110 0M640 354l0 -1M640 354l153 0 0 -1 73 0 1 1 1 -1 37 0M905 354l0 -1M905 354l26 0"/>
<path stroke="#A0522D" d="M450 119l45 0"/>
<text stroke="none" fill="white" font-size="16" x="505" y="128">
v(x0.dw_0)
</text>
<path stroke="#A0522D" d="M60 369l20 0 1 -1 0 -1 1 0 0 -1 1 0 1 2M84 373l0 -5M84 373l1 7M85 402l0 -22M85 402l1 9M86 413l0 -2M86 413l1 1 0 -1 2 0M89 414l0 -1M89 414l8 0 0 -1 1 -4 0 -8 3 0 1 1 2 0M104 403l0 -1M104 403l1 0M105 404l0 -1M105 404l1 1"/>
<path stroke="#A0522D" d="M106 406l0 -1M106 406l1 0M107 407l0 -1M107 407l1 0M108 408l0 -1M108 408l3 0 3 3M114 412l0 -1M114 412l1 0M115 413l0 -1M115 413l1 0 1 1 80 0 0 -1 1 0 0 -1 1 0 0 -1 3 0 0 -1 10 0 0 -1 1 0 1 -1 0 -1 1 0M215 408l0 -1M215 408l1 6"/>
<path stroke="#A0522D" d="M216 415l0 -1 75 0 1 1M292 416l0 -1M292 416l1 0 0 -8 1 -11 0 -25 1 -5 0 -3 1 0 0 -1 2 -2M298 362l0 -1M298 362l17 0 0 -2 2 2 9 0M326 363l0 -1M326 363l1 1 1 0 1 -1 1 0 0 -1 102 0 0 -1 1 1M433 364l0 -2M433 364l1 -1 0 -1"/>
<path stroke="#A0522D" d="M434 362l75 0 0 -1 2 0 0 -1 1 1M512 365l0 -4M512 365l1 6M513 381l0 -10M513 381l1 17M514 413l0 -15M514 413l1 0 1 1 7 0M523 415l0 -1M523 415l2 0M525 416l0 -1M525 416l2 0 1 -1 1 0 0 -1 402 0"/>
<path stroke="#FF7F50" d="M60 119l45 0"/>
<text stroke="none" fill="white" font-size="16" x="115" y="128">
v(q0)-6
</text>
<path stroke="#FF7F50" d="M60 536l61 0 0 -1 1 0 1 1M123 537l0 -1M123 537l1 1M124 540l0 -2M124 540l1 3M125 548l0 -5M125 548l1 3M126 554l0 -3M126 554l1 4M127 561l0 -3M127 561l1 4M128 568l0 -3M128 568l1 3M129 577l0 -6M129 577l1 3M130 582l0 -2M130 582l1 2"/>
<path stroke="#FF7F50" d="M131 585l0 -1M131 585l1 0 0 -3 1 -2 0 -3 1 -3 0 -3 1 -3 0 -6 1 -2 0 -3 1 -2 0 -2 1 -2 0 -2 1 -2 0 -3 1 -1 0 -1 1 -1 0 -1 1 0 0 -2 1 0 1 -1 1 0 1 -1 193 0 1 -1 1 0 1 1M342 538l0 -2M342 538l1 2M343 542l0 -2M343 542l1 3"/>
<path stroke="#FF7F50" d="M344 548l0 -3M344 548l1 3M345 558l0 -7M345 558l1 3M346 564l0 -3M346 564l1 4M347 571l0 -3M347 571l1 3M348 580l0 -6M348 580l1 2M349 584l0 -2M349 584l1 1M350 586l0 -1M350 586l1 1 1 0M352 588l0 -1M352 588l208 0 0 -1 1 -2"/>
<path stroke="#FF7F50" d="M561 585l0 -5 1 -4 0 -3 1 -2 0 -3 1 -3 0 -3 1 -2 0 -5 1 -2 0 -2 1 -2 0 -2 1 -2 0 -2 1 -1 0 -1 1 -1 0 -1 1 0 0 -1 1 0 0 -1 2 0 1 -1 199 0 0 -1 2 0M776 536l0 -1M776 536l1 1M777 539l0 -2M777 539l1 2M778 546l0 -5M778 546l1 3"/>
<path stroke="#FF7F50" d="M779 552l0 -3M779 552l1 3M780 559l0 -4M780 559l1 3M781 569l0 -7M781 569l1 3M782 575l0 -3M782 575l1 3M783 581l0 -3M783 581l1 2M784 585l0 -2M784 585l1 1M785 587l0 -1M785 587l1 0 1 1 144 0"/>
<path stroke="cyan" d="M450 135l45 0"/>
<text stroke="none" fill="white" font-size="16" x="505" y="144">
v(x0.wren)-8
</text>
<path stroke="cyan" d="M60 646l18 0 1 -1 0 -1 1 -2 0 -1 1 -2 0 -5 1 -2 0 -3 1 -2 0 -2 1 -2 0 -2 1 -2 0 -3 1 -2 0 -1 1 -2 0 -2 1 -2 0 -4 1 -1 0 -1 1 -1 0 -1 1 -1 0 -2 1 0 1 -1 1 0 1 -1 1 3M96 599l0 -2M96 599l1 0M97 600l0 -1M97 600l1 -1 0 -2 1 0"/>
<path stroke="cyan" d="M99 597l0 -1 1 0 1 -1 2 0 0 -1 110 0 1 -1 0 -3 1 -2 0 -1 1 1M216 589l0 -1M216 589l1 1M217 591l0 -1M217 591l1 0M218 592l0 -1M218 592l2 0M220 593l0 -1M220 593l3 0M223 594l0 -1M223 594l70 0 0 -2 1 -2 0 -3 1 2M295 591l0 -2"/>
<path stroke="cyan" d="M295 591l1 2M296 594l0 -1M296 594l1 2M297 597l0 -1M297 597l1 0 0 -1 1 0 0 -1 2 0 0 -1 11 0 1 -1M313 594l0 -1M313 594l1 3M314 599l0 -2M314 599l1 0M315 600l0 -1 1 -1 0 -1 1 0 0 -1 1 0 0 -1 3 0 0 -1 2 0M323 595l0 -1M323 595l2 0"/>
<path stroke="cyan" d="M325 595l1 -1 105 0 1 -1 0 -3 1 -2 0 -1M433 588l2 2M435 591l0 -1M435 591l1 0M436 592l0 -1M436 592l1 0M437 593l0 -1M437 593l4 0M441 594l0 -1M441 594l69 0 0 -1 1 0M511 594l0 -1M511 594l1 1M512 596l0 -1M512 596l1 0M513 597l0 -1"/>
<path stroke="cyan" d="M513 597l1 1M514 599l0 -1M514 599l1 -2 0 -3 1 -1 1 0M517 595l0 -2M517 595l1 1M518 597l0 -1M518 597l1 2M519 601l0 -2M519 601l1 1M520 605l0 -3M520 605l1 2M521 611l0 -4M521 611l1 2M522 616l0 -3M522 616l1 2M523 620l0 -2M523 620l1 2"/>
<path stroke="cyan" d="M524 627l0 -5M524 627l1 2M525 631l0 -2M525 631l1 3M526 636l0 -2M526 636l1 2M527 640l0 -2M527 640l1 1M528 643l0 -2M528 643l1 1 1 0M530 645l0 -1M530 645l1 0M531 646l0 -1M531 646l400 0"/>
</svg>
