<?xml version="1.0" standalone="yes"?>
<!DOCTYPE svg PUBLIC "-//W3C//DTD SVG 1.1//EN"
 "http://www.w3.org/Graphics/SVG/1.1/DTD/svg11.dtd">
<svg xmlns="http://www.w3.org/2000/svg" version="1.1"
  width="100%" height="100%" viewBox="0 0 1024 768"
  style="fill: none; font-family: Helvetica;
 font: Helvetica;
">

<!-- Creator: NGspice -->

<rect x="0" y="0" width="1024" height="768" fill="black" stroke="none"/>
<text stroke="none" fill="white" font-size="16" x="358" y="752">
time
</text>
<text stroke="none" fill="white" font-size="16" x="10" y="16">
tran1: characterizer
</text>
<path stroke="white" stroke-dasharray="1,2" d="M50 704l0 -638"/>
<text stroke="none" fill="white" font-size="16" x="30" y="728">
10.0
</text>
<path stroke="white" stroke-dasharray="1,2" d="M182 704l0 -638"/>
<text stroke="none" fill="white" font-size="16" x="162" y="728">
12.0
</text>
<path stroke="white" stroke-dasharray="1,2" d="M314 704l0 -638"/>
<text stroke="none" fill="white" font-size="16" x="294" y="728">
14.0
</text>
<path stroke="white" stroke-dasharray="1,2" d="M446 704l0 -638"/>
<text stroke="none" fill="white" font-size="16" x="426" y="728">
16.0
</text>
<path stroke="white" stroke-dasharray="1,2" d="M578 704l0 -638"/>
<text stroke="none" fill="white" font-size="16" x="558" y="728">
18.0
</text>
<path stroke="white" stroke-dasharray="1,2" d="M710 704l0 -638"/>
<text stroke="none" fill="white" font-size="16" x="690" y="728">
20.0
</text>
<path stroke="white" stroke-dasharray="1,2" d="M842 704l0 -638"/>
<text stroke="none" fill="white" font-size="16" x="822" y="728">
22.0
</text>
<path stroke="white" stroke-dasharray="1,2" d="M974 704l0 -638"/>
<text stroke="none" fill="white" font-size="16" x="954" y="728">
24.0
</text>
<text stroke="none" fill="white" font-size="16" x="614" y="752">
ns
</text>
<path stroke="white" stroke-dasharray="1,2" d="M50 704l924 0"/>
<text stroke="none" fill="white" font-size="16" x="8" y="712">
-0.2
</text>
<path stroke="white" d="M50 646l924 0"/>
<text stroke="none" fill="white" font-size="16" x="18" y="654">
0.0
</text>
<path stroke="white" stroke-dasharray="1,2" d="M50 588l924 0"/>
<text stroke="none" fill="white" font-size="16" x="18" y="596">
0.2
</text>
<path stroke="white" stroke-dasharray="1,2" d="M50 530l924 0"/>
<text stroke="none" fill="white" font-size="16" x="18" y="538">
0.4
</text>
<path stroke="white" stroke-dasharray="1,2" d="M50 472l924 0"/>
<text stroke="none" fill="white" font-size="16" x="18" y="480">
0.6
</text>
<path stroke="white" stroke-dasharray="1,2" d="M50 414l924 0"/>
<text stroke="none" fill="white" font-size="16" x="18" y="422">
0.8
</text>
<path stroke="white" stroke-dasharray="1,2" d="M50 356l924 0"/>
<text stroke="none" fill="white" font-size="16" x="18" y="364">
1.0
</text>
<path stroke="white" stroke-dasharray="1,2" d="M50 298l924 0"/>
<text stroke="none" fill="white" font-size="16" x="18" y="306">
1.2
</text>
<path stroke="white" stroke-dasharray="1,2" d="M50 240l924 0"/>
<text stroke="none" fill="white" font-size="16" x="18" y="248">
1.4
</text>
<path stroke="white" stroke-dasharray="1,2" d="M50 182l924 0"/>
<text stroke="none" fill="white" font-size="16" x="18" y="190">
1.6
</text>
<path stroke="white" stroke-dasharray="1,2" d="M50 124l924 0"/>
<text stroke="none" fill="white" font-size="16" x="18" y="132">
1.8
</text>
<path stroke="white" stroke-dasharray="1,2" d="M50 66l924 0"/>
<text stroke="none" fill="white" font-size="16" x="18" y="74">
2.0
</text>
<text stroke="none" fill="white" font-size="16" x="10" y="32">
V
</text>
<path stroke="red" d="M462 23l46 0"/>
<text stroke="none" fill="white" font-size="16" x="518" y="32">
v(clk)
</text>
<path stroke="red" d="M179 646l0 -11 1 -9 1 -12 0 -13 3 -39 0 -12 4 -52 0 -13 1 -12 3 -39 0 -13 1 -12 3 -39 0 -13 1 -12 2 -26 0 -13 1 -13 1 -12 2 -26 0 -13 2 -26 1 -12 1 -13 0 -13 2 -26 1 -12 1 -13 0 -3 165 0M376 133l0 -9M376 133l1 10 1 13M378 169l0 -13"/>
<path stroke="red" d="M378 169l1 13 1 12 2 26M382 233l0 -13M382 233l1 13 1 12 2 26M386 297l0 -13M386 297l2 26 1 12M389 348l0 -13M389 348l3 39 1 12M393 412l0 -13M393 412l3 39 1 12M397 476l0 -13M397 476l3 39 1 12M401 540l0 -13M401 540l3 39M404 592l0 -13"/>
<path stroke="red" d="M404 592l1 12 3 39M408 646l0 -3M408 646l165 0 0 -9 1 -10 2 -26 0 -13 1 -12 3 -39 0 -13 1 -12 2 -26 0 -13 2 -26 1 -12 1 -13 0 -13 2 -26 1 -12 1 -13 0 -13 2 -26 1 -12 0 -13 3 -39 1 -12 0 -13 4 -52 0 -12 3 -39 0 -3 165 0M770 133l0 -9"/>
<path stroke="red" d="M770 133l1 10 2 26M773 182l0 -13M773 182l1 12 3 39M777 246l0 -13M777 246l1 12 3 39M781 310l0 -13M781 310l1 13 1 12 2 26M785 374l0 -13M785 374l1 13 1 12 1 13M788 425l0 -13M788 425l2 26 1 12 1 13M792 489l0 -13M792 489l2 26"/>
<path stroke="red" d="M794 515l1 12 1 13M796 553l0 -13M796 553l3 39 1 12M800 617l0 -13M800 617l2 26M802 646l0 -3M802 646l165 0"/>
<path stroke="blue" d="M50 23l46 0"/>
<text stroke="none" fill="white" font-size="16" x="106" y="32">
v(q0)
</text>
<path stroke="blue" d="M179 646l123 0 1 1M303 649l0 -2M303 649l1 1 1 0 1 -9 0 -15 1 -19 1 -20 1 -19 1 -20 0 -19 1 -18 1 -19 2 -36 0 -17 3 -51 1 -16 0 -15 2 -30 1 -14 0 -14 2 -26 1 -11 1 -12 0 -10 1 -10 2 -18 1 -7 0 -8 1 -7 2 -12 1 -5 0 -5 2 -8"/>
<path stroke="blue" d="M335 160l1 -3 0 -4 1 -3 1 -2 1 -3 1 -2 0 -2 1 -2 1 -1 1 -2 1 -1 0 -1 3 -3 0 -1 1 0 1 -1 1 0 2 -2 2 0 0 -1 3 0 1 -1 7 0 1 -1 324 0 1 -1 2 0 1 -1 0 -1 1 -2 1 1 1 5 1 12M698 156l0 -19M698 156l1 26 1 32 1 35 1 38M702 328l0 -41"/>
<path stroke="blue" d="M702 328l2 82 1 42M705 492l0 -40M705 492l1 39 1 33 1 27 1 20M709 624l0 -13M709 624l1 8 1 6 1 3 1 2M713 644l0 -1M713 644l1 1 1 0 1 1 251 0"/>
<path stroke="#FFA500" d="M462 39l46 0"/>
<text stroke="none" fill="white" font-size="16" x="518" y="48">
v(x0.pchg)
</text>
<path stroke="#FFA500" d="M179 124l24 0 0 -3 1 0 1 14 1 29 1 36M207 237l0 -37M207 237l1 36 1 34 1 33 1 31M211 399l0 -28M211 399l1 22 1 27M213 475l0 -27M213 475l1 24 1 22 1 19 1 15M217 567l0 -12M217 567l1 12 1 15 1 10 1 8M221 620l0 -8M221 620l1 7"/>
<path stroke="#FFA500" d="M222 627l1 5 1 4M224 638l0 -2M224 638l1 2 2 8 1 -6 0 -16 1 -17 2 -32 1 -17 0 -16 1 -15 1 -16 2 -30 0 -14 1 -14 1 -13 1 -12 0 -11 1 -9 1 -8 1 -9 1 -8 0 -8 1 -6 1 -7 1 -6 1 -5 0 -5 1 -4 1 -5 1 -9 0 -10 2 -20 1 -11 1 -9"/>
<path stroke="#FFA500" d="M254 280l0 -10 4 -36 0 -8 3 -21 1 -6 0 -6 1 -5 1 -6 1 -4 0 -5 1 -4 1 -3 1 -4 1 -3 0 -3 1 -3 2 -4 1 -3 0 -2 1 -1 1 -2 1 -1 1 -2 0 -1 3 -3 0 -1 1 -1 1 0 3 -3 1 0 1 -1 1 0 1 -1 2 0 0 -1 4 0 1 -1 9 0 1 -1 290 0 1 1 1 -2"/>
<path stroke="#FFA500" d="M598 123l0 -4 1 4 1 20 1 32 1 36M602 248l0 -37M602 248l1 36 1 34 1 32M605 379l0 -29M605 379l1 24 1 27 1 28M608 483l0 -25M608 483l1 24 1 21 1 18 1 14M612 571l0 -11M612 571l1 13 1 14 1 8 1 9M616 623l0 -8M616 623l1 6 2 8"/>
<path stroke="#FFA500" d="M619 637l1 2M620 641l0 -2M620 641l1 4 1 3 1 -9 0 -17 2 -32 1 -17 1 -16 0 -16 1 -16 3 -45 0 -14 1 -14 1 -13 2 -22 0 -9 2 -16 1 -9 0 -7 1 -7 2 -12 1 -5 0 -5 1 -4 1 -6 1 -9 1 -10 0 -10 1 -11 1 -10 1 -9 0 -10 3 -27 1 -8"/>
<path stroke="#FFA500" d="M653 233l0 -8 1 -8 1 -7 2 -12 0 -6 1 -6 1 -5 1 -4 1 -5 0 -3 2 -8 1 -3 0 -3 1 -2 1 -3 2 -4 0 -2 1 -2 1 -1 1 -2 1 -1 0 -1 4 -4 0 -1 1 -1 1 0 2 -2 1 0 1 -1 1 0 1 -1 2 0 1 -1 3 0 1 -1 8 0 1 -1 267 0"/>
<path stroke="green" d="M50 39l46 0"/>
<text stroke="none" fill="white" font-size="16" x="106" y="48">
v(x0.wlen)
</text>
<path stroke="green" d="M179 646l38 0 1 1 1 -1 31 0 1 1 1 4 1 7 1 -4 0 -28 1 -44 1 -49 1 -51 1 -50 0 -49 2 -90 1 -41 1 -36 0 -28 1 -20 1 -14 1 -9 0 -5 1 -4 1 -3 2 -4 0 -2 1 -1 1 0 1 -1 1 0 0 -1 1 0 1 -1 2 0M277 125l0 -2M277 125l1 4 1 3 1 2M280 136l0 -2"/>
<path stroke="green" d="M280 136l1 -1 1 -4 2 -4 0 -1 1 0 1 -1 3 0 1 -1 116 0 1 2 1 1 0 -2 1 -5 1 -11 1 3M411 175l0 -63M411 175l1 119 1 118 1 110 1 76M415 629l0 -31M415 629l1 10 1 4 1 1M418 645l0 -1M418 645l3 0 1 1 190 0M612 647l0 -1M612 647l1 -1"/>
<path stroke="green" d="M613 646l33 0M646 648l0 -2M646 648l1 5 1 6 1 -9 0 -33 1 -45 1 -50 1 -51 1 -49 0 -49 1 -46 1 -44 1 -40 1 -34 0 -26 1 -18 1 -13 1 -8 1 -5 0 -3 2 -6 1 -2 0 -1 2 -2 2 0 0 -1 2 0 1 -1 1 0M672 124l0 -1M672 124l2 6 1 2 1 3M676 136l0 -1"/>
<path stroke="green" d="M676 136l1 -2 2 -6 0 -1 2 -2 3 0 1 -1 115 0 1 2 1 1 0 -1 1 -1 0 -5 1 -11 1 3 1 63M806 294l0 -119M806 294l1 118 1 110 1 76 1 31M810 639l0 -10M810 639l1 4 2 2 2 0 1 1 151 0"/>
<path stroke="#FFC0C5" d="M462 55l46 0"/>
<text stroke="none" fill="white" font-size="16" x="518" y="64">
v(x0.saen)
</text>
<path stroke="#FFC0C5" d="M179 646l38 0 1 1 3 -3 1 1 1 0 1 1 45 0 1 1 3 0 1 -1 13 0 1 7M288 663l0 -10M288 663l1 -16 1 -47 1 -57 0 -56 1 -48 1 -40 1 -34 1 -33 0 -31 1 -27 1 -23 1 -22 1 -24 0 -23 1 -17 1 -10 1 4 1 23 0 -5 1 -15 1 -14 1 -6 0 -4"/>
<path stroke="#FFC0C5" d="M306 138l1 -4 1 -5 1 -2 1 -1 0 -1 1 -1 95 0 2 2 0 -1 1 -3 1 -7 1 1M411 154l0 -38M411 154l1 76 1 94 1 104 1 112M415 615l0 -75M415 615l1 23 1 6 1 2 194 0 1 1 1 0 1 -2 1 -1 2 0 1 1 1 0 1 1 5 0 1 1 6 0 2 -2 0 -2 1 -2 1 0"/>
<path stroke="#FFC0C5" d="M637 641l1 3M638 646l0 -2M638 646l1 1 3 0 1 -1 38 0 1 -1 1 3M683 658l0 -10M683 658l1 2 1 -29 1 -52 1 -57 0 -51 1 -44 1 -37 1 -33 0 -30 1 -25 1 -23 2 -48 0 -19 2 -32 1 -13 1 -10 0 -9 1 -7 1 -5 2 -6 0 -2 3 -3 1 0 1 -1"/>
<path stroke="#FFC0C5" d="M707 124l93 0 2 2 0 -1 1 0 0 -3 1 -7 1 1 1 38M806 229l0 -75M806 229l1 93 1 100 1 111 1 77M810 635l0 -25M810 635l1 8 1 2 2 0M814 646l0 -1M814 646l153 0"/>
<path stroke="#A52A2A" d="M50 55l46 0"/>
<text stroke="none" fill="white" font-size="16" x="106" y="64">
v(x0.x8.rstp)
</text>
<path stroke="#A52A2A" d="M179 124l20 0 1 -1 1 2 1 15 1 27M203 181l0 -14M203 181l1 -7 1 -15 1 -12 1 -7 0 -3 1 -4 1 -6 1 -2 1 0M211 126l0 -1M211 126l1 0 1 -1 2 0 1 -1 1 1M217 126l0 -1M217 126l1 -3 1 -10 1 -13 1 23M221 207l0 -84M221 207l1 101 1 95"/>
<path stroke="#A52A2A" d="M223 403l1 93M224 567l0 -71M224 567l1 39 1 19 1 9 1 -3 0 -6 1 7 1 8 1 3 1 2 1 1 14 0 0 -1 3 0 0 -1 3 0 1 1 10 0 1 1 1 -1 2 0 1 1M269 647l0 -1M269 647l1 1 1 2 1 3 1 2 0 -9 1 -35 1 -56 1 -66 1 -67 0 -61 1 -57 1 -53 1 -42"/>
<path stroke="#A52A2A" d="M280 209l0 -28 1 -20 1 -15 1 -9 1 -5 0 -3 1 -2 2 -2 2 0 1 -1 121 0M411 125l0 -1M411 125l1 0 3 -3 2 0 1 1M418 124l0 -1M418 124l3 0 1 1 3 0 1 -1 168 0 0 -1 1 3 1 11 1 23 1 20M598 182l0 -2M598 182l2 -28 1 -10 1 -5 0 -5"/>
<path stroke="#A52A2A" d="M602 134l1 -6 1 -3 1 0 0 -1 6 0 1 2 1 -5 1 -12 1 -7 1 47M616 242l0 -93M616 242l1 90 1 91 1 87 1 65M620 610l0 -35M620 610l1 17 1 7 1 -5 0 -4 1 9 1 6 1 3 1 2 1 1 14 0 0 -1 4 0 0 -1 1 1 12 0 1 1 4 0M664 647l0 -1M664 647l2 2"/>
<path stroke="#A52A2A" d="M666 649l2 4 1 -18 1 -42 1 -59 1 -66 0 -65 1 -60 1 -57 1 -52 1 -38 0 -24 1 -17 1 -13 1 -7 0 -5 2 -4 1 0 1 -1 2 0 1 -1 4 0M690 125l0 -1M690 125l3 0 1 -1 111 0 1 1 3 -3 1 0 0 -1 2 2 1 0 1 1 2 0 1 1 2 0 1 -1 147 0"/>
</svg>
